ply
format ascii 1.0
comment Created by Open3D
element vertex 749
property double x
property double y
property double z
property uchar red
property uchar green
property uchar blue
end_header
0.213911 -0.446579 0.0483272 0 255 0
-0.489435 0.546559 0.12946 0 255 0
-0.24052 -0.476353 0.0622675 0 255 0
-0.15327 -0.472842 0.047244 0 255 0
-0.0935962 -0.462061 0.0671794 0 255 0
-0.538357 0.330848 0.0334919 0 255 0
-0.542432 0.37957 0.0334915 0 255 0
-0.469738 0.525023 0.14633 0 255 0
-0.521817 0.476603 0.0984349 0 255 0
-0.530717 0.239495 0.0640503 0 255 0
-0.542432 0.37957 0.0579373 0 255 0
-0.500333 0.420746 0.155616 0 255 0
-0.545488 0.416111 0.0579371 0 255 0
-0.464912 0.590627 0.0816691 0 255 0
0.19636 0.793612 0.0430286 0 255 0
0.147379 0.779288 0.109718 0 255 0
-0.0610877 0.494656 0.286724 0 255 0
0.0889857 0.631569 0.243255 0 255 0
-0.259486 -0.468133 0.0878672 0 255 0
-0.274776 -0.473714 0.0722487 0 255 0
-0.380102 -0.278317 0.0794875 0 255 0
-0.22102 -0.480876 0.0496695 0 255 0
0.0598993 -0.398424 0.137929 0 255 0
0.347797 0.552153 0.13969 0 255 0
0.344582 0.235245 0.0371101 0 255 0
0.359507 0.14733 0.191117 0 255 0
0.383082 0.219129 0.0609109 0 255 0
0.0235132 0.0507708 0.246679 0 255 0
0.364785 -0.368279 0.136061 0 255 0
0.321125 -0.387551 0.126761 0 255 0
0.107892 0.416641 0.254278 0 255 0
-0.030669 -0.350808 0.264868 0 255 0
0.0335713 0.00484661 0.375683 0 255 0
-0.0150709 -0.0139969 0.377201 0 255 0
-0.063652 0.742035 0.0644866 0 255 0
-0.165014 0.724605 0.0811715 0 255 0
-0.121697 0.710529 0.0826166 0 255 0
-0.16257 0.668973 0.154079 0 255 0
-0.0879727 0.0468283 0.251873 0 255 0
-0.177681 0.760891 0.0508332 0 255 0
-0.531061 0.539454 0.0901173 0 255 0
-0.37402 0.671079 0.0951271 0 255 0
0.193732 0.587033 0.230186 0 255 0
-0.257848 0.524914 0.315585 0 255 0
0.106953 0.503644 0.272152 0 255 0
-0.0197087 0.369051 0.290636 0 255 0
0.137527 0.371588 0.178213 0 255 0
-0.0317872 0.355934 0.303932 0 255 0
-0.308427 -0.360067 0.122644 0 255 0
-0.267732 -0.448851 0.106143 0 255 0
-0.254326 -0.486645 0.0405123 0 255 0
-0.386147 -0.308009 0.138151 0 255 0
-0.126382 -0.450458 0.093428 0 255 0
-0.190255 -0.479704 0.0458791 0 255 0
-0.448683 -0.247565 0.107938 0 255 0
-0.47768 -0.220847 0.0401562 0 255 0
-0.426811 -0.237151 0.129075 0 255 0
-0.443234 -0.165265 0.0985032 0 255 0
-0.542956 0.525399 0.0641765 0 255 0
0.150135 0.766374 0.0398003 0 255 0
0.216447 0.739447 0.101351 0 255 0
0.136719 0.781879 0.0522367 0 255 0
0.151471 0.678981 0.201761 0 255 0
0.0845385 0.769104 0.0664653 0 255 0
0.203792 0.725171 0.132618 0 255 0
0.185087 0.738458 0.117358 0 255 0
0.169981 0.773378 0.133412 0 255 0
0.15462 0.652793 0.206424 0 255 0
0.17538 0.786741 0.104733 0 255 0
0.265798 0.664152 0.190547 0 255 0
0.383815 -0.2559 0.142058 0 255 0
-0.419553 -0.199209 0.0386396 0 255 0
-0.44087 -0.164883 0.0508425 0 255 0
0.121082 0.0787494 0.21713 0 255 0
0.133236 0.119527 0.268424 0 255 0
-0.231821 0.513717 0.271239 0 255 0
0.140143 -0.318953 0.246225 0 255 0
-0.138461 -0.176061 0.174033 0 255 0
-0.404673 0.6755 0.0780987 0 255 0
-0.0935626 -0.00827809 0.339255 0 255 0
-0.293128 0.293941 0.0487879 0 255 0
-0.1586 -0.303365 0.316481 0 255 0
-0.178933 -0.323085 0.306632 0 255 0
-0.197125 0.319209 0.370637 0 255 0
-0.144126 -0.348462 0.297309 0 255 0
-0.184537 -0.348264 0.272647 0 255 0
-0.101894 -0.345383 0.293559 0 255 0
-0.215549 0.760324 0.0392018 0 255 0
-0.104012 -0.323777 0.310376 0 255 0
-0.222043 -0.322636 0.250509 0 255 0
-0.208182 0.719772 0.085098 0 255 0
-0.256452 0.7561 0.0419626 0 255 0
-0.248042 0.702455 0.0910905 0 255 0
-0.0560818 -0.470553 0.0457234 0 255 0
-0.128428 0.725237 0.0594737 0 255 0
-0.48427 0.379415 0.0827169 0 255 0
-0.492206 0.273086 0.0504842 0 255 0
-0.500982 0.319512 0.0656891 0 255 0
0.166367 0.556786 0.198547 0 255 0
-0.299577 -0.425626 0.133898 0 255 0
-0.311454 -0.484728 0.0544816 0 255 0
-0.312603 -0.382319 0.153288 0 255 0
0.215037 0.663148 0.128797 0 255 0
-0.240292 -0.392425 0.147555 0 255 0
0.0684356 0.497284 0.179467 0 255 0
-0.113116 -0.0321891 0.394192 0 255 0
-0.100477 -0.0577414 0.328737 0 255 0
0.00487982 -0.104966 0.373465 0 255 0
0.139177 0.671122 0.0406419 0 255 0
0.0675927 0.0733853 0.218677 0 255 0
-0.29007 -0.325094 0.186498 0 255 0
-0.185452 -0.307328 0.266294 0 255 0
0.0446745 0.0518973 0.229008 0 255 0
-0.302869 -0.396245 0.0941373 0 255 0
-0.16057 0.559807 0.341316 0 255 0
-0.106326 0.564771 0.357696 0 255 0
-0.068497 0.554444 0.376361 0 255 0
-0.0734697 0.497993 0.429044 0 255 0
-0.372138 0.709943 0.101017 0 255 0
-0.330311 0.745168 0.0496097 0 255 0
-0.395282 0.729962 0.0745757 0 255 0
-0.294424 0.721912 0.0780813 0 255 0
-0.329373 0.730136 0.0797199 0 255 0
-0.370699 0.728839 0.0662475 0 255 0
-0.392473 0.712672 0.102974 0 255 0
-0.273837 0.731875 0.0418237 0 255 0
-0.262905 0.721208 0.0691182 0 255 0
-0.0790352 0.447474 0.301449 0 255 0
-0.102491 0.492058 0.432778 0 255 0
0.276772 0.0351656 0.323906 0 255 0
-0.32735 -0.424812 0.132651 0 255 0
-0.35153 -0.377442 0.110686 0 255 0
-0.382161 -0.373545 0.101763 0 255 0
-0.360282 -0.348483 0.13319 0 255 0
-0.337222 -0.392377 0.105521 0 255 0
-0.0940012 -0.0700903 0.361482 0 255 0
-0.0420517 -0.293238 0.353009 0 255 0
0.245518 0.698751 0.135658 0 255 0
-0.0385928 -0.334461 0.306218 0 255 0
-0.028379 -0.365777 0.281894 0 255 0
0.0405507 0.716673 0.0429858 0 255 0
-0.250706 -0.36608 0.0419457 0 255 0
-0.158916 0.500157 0.401981 0 255 0
-0.187296 -0.159304 0.0902481 0 255 0
-0.113027 0.56305 0.326393 0 255 0
-0.00304973 0.494289 0.200444 0 255 0
0.239193 -0.26187 0.291663 0 255 0
0.0260582 0.505374 0.18208 0 255 0
0.168921 -0.294378 0.310712 0 255 0
0.226544 -0.23675 0.309188 0 255 0
0.339975 0.256492 0.190665 0 255 0
0.355993 0.223043 0.205373 0 255 0
-0.20782 0.532406 0.340164 0 255 0
0.19145 -0.28185 0.312264 0 255 0
-0.165382 0.526718 0.393407 0 255 0
0.226094 -0.30739 0.228606 0 255 0
-0.23342 -0.279382 0.261973 0 255 0
-0.0799873 -0.319788 0.281201 0 255 0
-0.439343 0.212474 0.198389 0 255 0
-0.246568 0.369712 0.391685 0 255 0
-0.158475 -0.20157 0.171597 0 255 0
0.066111 0.737646 0.0416733 0 255 0
0.0168505 0.692057 0.0458682 0 255 0
0.0596052 -0.0203105 0.323057 0 255 0
-0.504187 0.343521 0.142678 0 255 0
-0.517363 0.357077 0.0840936 0 255 0
-0.0203965 0.0398612 0.298235 0 255 0
0.0122663 -0.0810979 0.475572 0 255 0
-0.0138747 -0.031515 0.489703 0 255 0
0.04525 -0.0607646 0.371693 0 255 0
0.288364 0.0670254 0.300605 0 255 0
-0.493585 0.459042 0.128644 0 255 0
0.209822 -0.305648 0.197653 0 255 0
0.093667 -0.457236 0.0407445 0 255 0
-0.0682333 -0.255073 0.358554 0 255 0
0.193509 0.587362 0.262815 0 255 0
0.148658 -0.448282 0.0497663 0 255 0
-0.300625 -0.158606 0.225424 0 255 0
0.151635 0.559841 0.303964 0 255 0
0.27399 -0.44548 0.0348279 0 255 0
-0.197035 0.739781 0.0682027 0 255 0
-0.254014 0.731637 0.0992009 0 255 0
0.320088 -0.440731 0.0378412 0 255 0
-0.254783 0.679981 0.105492 0 255 0
0.264463 0.659192 0.100988 0 255 0
0.182402 0.760231 0.10331 0 255 0
0.114634 0.747266 0.0806327 0 255 0
0.107738 0.765378 0.0366491 0 255 0
0.282503 0.586023 0.107238 0 255 0
0.386545 -0.21147 0.0758427 0 255 0
0.418649 -0.100528 0.110083 0 255 0
0.377275 -0.226136 0.0587893 0 255 0
0.233874 0.718401 0.123154 0 255 0
0.164061 0.748556 0.102106 0 255 0
0.299856 0.599342 0.101448 0 255 0
0.236468 0.686327 0.156304 0 255 0
0.24891 0.766163 0.0886466 0 255 0
0.135735 -0.436978 0.08603 0 255 0
0.0209334 0.77019 0.0698409 0 255 0
0.200748 -0.436602 0.0636223 0 255 0
0.199507 -0.398126 0.127106 0 255 0
0.0185055 0.75109 0.0919283 0 255 0
0.062666 0.710763 0.129908 0 255 0
-0.161215 0.519919 0.314938 0 255 0
0.00475461 -0.449448 0.0731872 0 255 0
-0.0185631 -0.0209378 0.342479 0 255 0
0.174815 -0.167337 0.116847 0 255 0
0.0455494 -0.462322 0.0385082 0 255 0
0.016729 -0.403094 0.13308 0 255 0
0.0773539 0.278442 0.167721 0 255 0
-0.105697 0.343414 0.355685 0 255 0
-0.130924 -0.244549 0.0471794 0 255 0
0.0685557 -0.0179158 0.362925 0 255 0
0.293003 -0.344483 0.0900989 0 255 0
0.155388 0.722484 0.0831317 0 255 0
-0.172898 0.0218146 0.41852 0 255 0
0.0219546 -0.0629508 0.343226 0 255 0
-0.0431604 0.0156737 0.415933 0 255 0
-0.042227 -0.0944726 0.480437 0 255 0
-0.137922 -0.0868275 0.324688 0 255 0
-0.0652797 -0.0790609 0.37058 0 255 0
-0.250966 -0.306689 0.188405 0 255 0
-0.196499 0.362412 0.249844 0 255 0
0.166527 0.230753 0.371504 0 255 0
0.0676096 -0.274899 0.352726 0 255 0
-0.113264 0.0353715 0.254846 0 255 0
0.0961665 -0.257205 0.347616 0 255 0
0.130404 0.402381 0.386039 0 255 0
-0.435137 0.21369 0.0369537 0 255 0
-0.435194 -0.304656 0.114175 0 255 0
-0.454431 -0.342582 0.0714116 0 255 0
-0.440021 -0.185066 0.0456238 0 255 0
-0.426147 -0.212254 0.101334 0 255 0
-0.464497 -0.354132 0.0416361 0 255 0
0.328384 0.489121 0.0392628 0 255 0
0.0301108 0.516264 0.254998 0 255 0
-0.0759195 0.628838 0.237174 0 255 0
-0.104259 0.609876 0.261479 0 255 0
-0.247386 0.462179 0.0352551 0 255 0
0.10193 0.288573 0.400287 0 255 0
-0.0426943 0.461949 0.195731 0 255 0
0.0582094 0.220291 0.421824 0 255 0
-0.062656 0.263445 0.37334 0 255 0
0.192564 0.563726 0.187398 0 255 0
0.292473 -0.36525 0.121092 0 255 0
0.24097 -0.321878 0.232341 0 255 0
0.262979 -0.240073 0.275946 0 255 0
-0.0243655 0.571106 0.361174 0 255 0
-0.113702 0.531706 0.382328 0 255 0
0.0220403 0.571938 0.346766 0 255 0
-0.0134298 0.528539 0.409472 0 255 0
0.0396496 0.544672 0.386403 0 255 0
-0.303905 0.0621413 0.31064 0 255 0
-0.00787422 0.558164 0.378646 0 255 0
0.322928 -0.175583 0.250431 0 255 0
-0.0207296 0.583333 0.336792 0 255 0
-0.175006 0.0756086 0.396962 0 255 0
0.221976 0.722949 0.14889 0 255 0
0.272252 0.783679 0.0839315 0 255 0
-0.129952 -0.0832282 0.360259 0 255 0
0.13085 0.61769 0.260203 0 255 0
0.104207 0.600552 0.252246 0 255 0
-0.0614779 0.531107 0.335596 0 255 0
-0.0347423 0.46524 0.245715 0 255 0
0.0597732 0.494546 0.210806 0 255 0
-0.54793 0.566865 0.0504444 0 255 0
-0.536931 0.571656 0.0707378 0 255 0
-0.537298 0.590437 0.0541994 0 255 0
-0.439171 0.598493 0.149246 0 255 0
-0.25489 0.558912 0.290325 0 255 0
-0.290782 0.539409 0.287297 0 255 0
-0.186685 0.528758 0.31355 0 255 0
-0.0119942 0.0783703 0.285935 0 255 0
-0.446476 0.698871 0.0744278 0 255 0
-0.42526 0.667027 0.135436 0 255 0
0.112396 0.589722 0.267309 0 255 0
0.143681 0.549049 0.193174 0 255 0
0.208741 0.517404 0.292123 0 255 0
0.163146 0.117238 0.359944 0 255 0
-0.501309 0.34927 0.0616406 0 255 0
-0.102092 0.458288 0.203159 0 255 0
-0.302994 0.48118 0.309213 0 255 0
0.000729411 0.745199 0.0753758 0 255 0
-0.219964 0.565162 0.233526 0 255 0
-0.239924 0.539405 0.334903 0 255 0
0.0415439 0.73123 0.131415 0 255 0
-0.0219958 0.68151 0.158621 0 255 0
0.149568 0.0598043 0.0835162 0 255 0
-0.0796785 -0.0067602 0.317845 0 255 0
-0.481765 -0.0978026 0.0444209 0 255 0
0.327047 -0.365304 0.0780166 0 255 0
0.359875 -0.316046 0.12014 0 255 0
0.282432 0.389423 0.264264 0 255 0
0.382932 -0.192257 0.157493 0 255 0
0.231447 0.559294 0.199629 0 255 0
0.432088 -0.0364636 0.0647107 0 255 0
0.118006 0.412793 0.27491 0 255 0
-0.248365 0.492383 0.28411 0 255 0
0.433099 0.131325 0.14853 0 255 0
0.407504 0.185752 0.0364148 0 255 0
0.393888 -0.21517 0.0954248 0 255 0
0.359862 0.10438 0.258989 0 255 0
0.419979 0.0714866 0.205644 0 255 0
0.371416 0.13236 0.236741 0 255 0
0.446155 0.0886234 0.133433 0 255 0
0.446534 0.0530855 0.122838 0 255 0
0.434186 0.0256754 0.147075 0 255 0
0.440514 0.0934234 0.160103 0 255 0
0.42291 0.0243834 0.190247 0 255 0
0.419968 0.0983398 0.205277 0 255 0
0.398336 0.131039 0.217848 0 255 0
0.387467 0.572597 0.0690879 0 255 0
0.354719 0.534299 0.0706913 0 255 0
0.246475 0.204744 0.285089 0 255 0
-0.0557389 -0.0903336 0.387561 0 255 0
-0.0206001 -0.0385604 0.392428 0 255 0
0.360625 0.300147 0.0387575 0 255 0
0.363408 0.383973 0.0698347 0 255 0
0.367451 0.324486 0.06005 0 255 0
0.345654 0.412672 0.101312 0 255 0
0.100829 0.625987 0.207659 0 255 0
-0.0347048 0.211228 0.333228 0 255 0
0.381759 0.385109 0.122073 0 255 0
0.0658733 0.270174 0.200433 0 255 0
-0.235881 -0.0775976 0.168702 0 255 0
-0.122467 0.480937 0.287254 0 255 0
-0.20865 0.295893 0.383398 0 255 0
0.468941 -0.177238 0.0794619 0 255 0
0.481772 -0.166419 0.0376436 0 255 0
0.449256 -0.141313 0.095528 0 255 0
0.398976 -0.307339 0.0934277 0 255 0
0.396676 -0.2185 0.144904 0 255 0
0.413102 -0.164691 0.141322 0 255 0
0.455643 0.0942238 0.0352578 0 255 0
0.31407 -0.309317 0.110121 0 255 0
0.100976 0.0961382 0.177252 0 255 0
0.302821 -0.346811 0.0550535 0 255 0
0.118777 0.104014 0.1917 0 255 0
0.122571 0.400603 0.176139 0 255 0
-0.473069 -0.0832202 0.0807288 0 255 0
-0.478511 -0.068514 0.0340138 0 255 0
-0.460675 -0.0806501 0.057582 0 255 0
-0.483653 0.18791 0.154197 0 255 0
-0.107288 0.545608 0.205313 0 255 0
-0.331728 0.670197 0.0471441 0 255 0
-0.34883 0.665047 0.036983 0 255 0
-0.450709 0.051814 0.0994819 0 255 0
-0.311617 0.476421 0.0365424 0 255 0
0.124099 0.48614 0.411536 0 255 0
-0.439837 0.245952 0.0370463 0 255 0
0.0819743 0.503936 0.356857 0 255 0
-0.459377 0.418089 0.0449637 0 255 0
-0.190418 0.21734 0.385095 0 255 0
-0.0979167 0.14693 0.242803 0 255 0
-0.164683 0.19953 0.403288 0 255 0
-0.345114 0.421347 0.292724 0 255 0
-0.101839 -0.0320159 0.306229 0 255 0
-0.319774 0.505568 0.293587 0 255 0
-0.339158 0.463741 0.293677 0 255 0
-0.0985503 -0.0434924 0.402702 0 255 0
-0.0844381 0.49793 0.0576298 0 255 0
0.0879508 0.0911351 0.274667 0 255 0
-0.243028 -0.350311 0.20763 0 255 0
-0.311328 -0.276714 0.238756 0 255 0
-0.185622 0.32472 0.347614 0 255 0
-0.109564 0.465948 0.430816 0 255 0
0.00438765 -0.0988121 0.317653 0 255 0
-0.00964894 -0.107994 0.326824 0 255 0
-0.0847968 -0.290253 0.343835 0 255 0
0.383794 0.3647 0.126996 0 255 0
-0.150789 0.481194 0.424196 0 255 0
-0.206829 0.36663 0.392402 0 255 0
-0.352775 0.330417 0.296876 0 255 0
-0.334134 0.345553 0.310037 0 255 0
-0.195581 0.462926 0.381581 0 255 0
-0.174082 0.50227 0.355388 0 255 0
-0.148748 0.502016 0.361821 0 255 0
-0.313818 0.676985 0.0383437 0 255 0
-0.218914 0.309703 0.374827 0 255 0
-0.117295 0.260271 0.228127 0 255 0
-0.148858 0.437679 0.371489 0 255 0
0.103532 0.10465 0.26285 0 255 0
-0.0513999 -0.27112 0.326319 0 255 0
-0.2173 0.243036 0.381147 0 255 0
0.0706469 0.695637 0.0578918 0 255 0
-0.231838 -0.381059 0.0517909 0 255 0
-0.131522 0.192124 0.403602 0 255 0
0.0163995 -0.0113799 0.487222 0 255 0
-0.106663 -0.114429 0.385911 0 255 0
-0.0399934 -0.372946 0.25318 0 255 0
-0.316683 -0.122998 0.301872 0 255 0
-0.0261732 0.28235 0.288653 0 255 0
-0.372642 -0.0802645 0.277587 0 255 0
0.353471 0.327446 0.144917 0 255 0
0.25849 -0.41352 0.105948 0 255 0
-0.249893 0.724824 0.0473898 0 255 0
-0.218222 0.697441 0.0969494 0 255 0
0.0442994 0.00197439 0.343238 0 255 0
0.355774 0.602102 0.12662 0 255 0
0.36499 0.628086 0.080353 0 255 0
0.239457 0.637439 0.102687 0 255 0
0.263003 0.638633 0.124551 0 255 0
0.288167 0.643534 0.116986 0 255 0
-0.106062 -0.167212 0.263667 0 255 0
0.470164 -0.0724687 0.0587678 0 255 0
0.452436 -0.0617449 0.0944452 0 255 0
0.430344 -0.0619879 0.123499 0 255 0
0.462413 -0.0200649 0.065572 0 255 0
-0.0515943 0.464236 0.223423 0 255 0
-0.459998 -0.0489598 0.112994 0 255 0
0.0677832 0.500603 0.251244 0 255 0
-0.460055 -0.0954105 0.110025 0 255 0
-0.460751 -0.00823352 0.107726 0 255 0
-0.499235 0.00791388 0.05172 0 255 0
-0.496022 -0.0544343 0.0512599 0 255 0
0.358984 -0.247213 0.0481026 0 255 0
0.470438 -0.138109 0.0502473 0 255 0
0.245494 -0.39396 0.0589514 0 255 0
-0.453694 0.120373 0.0573335 0 255 0
-0.0783771 -0.17711 0.248875 0 255 0
-0.177999 -0.0490631 0.233782 0 255 0
-0.139964 0.709347 0.0346132 0 255 0
0.0650312 0.253123 0.430853 0 255 0
0.200375 0.39678 0.293879 0 255 0
-0.440005 0.499814 0.235377 0 255 0
0.131132 0.0778015 0.259345 0 255 0
0.436198 0.141082 0.0383315 0 255 0
-0.0349595 0.423222 0.286086 0 255 0
0.0767469 0.249724 0.408805 0 255 0
0.13289 0.265489 0.362269 0 255 0
-0.103574 0.359624 0.370263 0 255 0
-0.456777 0.548986 0.0575077 0 255 0
0.121942 0.30118 0.386527 0 255 0
0.12962 0.336767 0.364404 0 255 0
0.0537364 0.401116 0.352563 0 255 0
-0.100571 0.262003 0.257171 0 255 0
-0.38645 -0.162121 0.202945 0 255 0
0.190078 0.514827 0.281281 0 255 0
-0.3643 -0.167156 0.24487 0 255 0
0.333727 -0.151973 0.245552 0 255 0
0.100164 0.407142 0.379842 0 255 0
0.109621 0.452738 0.368221 0 255 0
0.0448121 0.336768 0.384188 0 255 0
-0.423955 0.12784 0.0978993 0 255 0
-0.432523 0.145822 0.103978 0 255 0
0.354685 0.242851 0.0797286 0 255 0
-0.186022 0.5419 0.209037 0 255 0
0.101328 0.48346 0.387091 0 255 0
-0.0711791 0.440127 0.200741 0 255 0
-0.500486 0.332245 0.0469638 0 255 0
-0.533872 0.43364 0.100617 0 255 0
0.423938 0.270816 0.0871818 0 255 0
-0.436972 0.643207 0.122742 0 255 0
-0.491251 0.650971 0.0655166 0 255 0
-0.423516 0.628517 0.139676 0 255 0
-0.428796 0.659227 0.107218 0 255 0
0.128291 -0.132453 0.17145 0 255 0
0.0133957 0.483207 0.309296 0 255 0
0.086526 0.510593 0.415949 0 255 0
0.123644 0.490569 0.265524 0 255 0
0.181431 0.315223 0.372685 0 255 0
0.173335 0.430335 0.373521 0 255 0
0.169457 0.368924 0.38005 0 255 0
0.158951 0.312679 0.370481 0 255 0
0.293559 0.35528 0.243903 0 255 0
0.388153 0.612807 0.0980223 0 255 0
-0.452676 0.594824 0.0480277 0 255 0
-0.491234 0.563672 0.0674396 0 255 0
0.232299 0.380547 0.309942 0 255 0
0.189418 0.532539 0.186711 0 255 0
-0.465392 0.579147 0.0370862 0 255 0
-0.510683 0.517769 0.0495631 0 255 0
-0.521067 0.417843 0.0791665 0 255 0
-0.513534 0.496788 0.0390256 0 255 0
-0.518864 0.342666 0.11481 0 255 0
0.117966 0.623246 0.242266 0 255 0
0.40525 0.618307 0.0664839 0 255 0
0.320628 0.570614 0.157276 0 255 0
0.366993 0.633089 0.124134 0 255 0
0.34008 0.634802 0.142923 0 255 0
0.41435 0.568702 0.056233 0 255 0
0.384891 0.119099 0.167354 0 255 0
-0.328965 0.717044 0.0621786 0 255 0
-0.417605 0.743356 0.0362189 0 255 0
-0.525105 0.246332 0.0962402 0 255 0
0.346644 0.111112 0.174146 0 255 0
-0.0406934 0.489151 0.185572 0 255 0
0.488995 -0.252284 0.0372816 0 255 0
0.486123 -0.216175 0.0371789 0 255 0
0.367346 0.265777 0.0436954 0 255 0
0.36403 0.287094 0.0569144 0 255 0
0.0416171 -0.0836587 0.411753 0 255 0
-0.447023 0.291719 0.0335249 0 255 0
-0.359615 0.652222 0.103272 0 255 0
-0.492333 0.476639 0.0459882 0 255 0
-0.291646 0.346373 0.0645483 0 255 0
-0.422537 -0.278222 0.105894 0 255 0
-0.42696 -0.38004 0.114393 0 255 0
-0.396794 -0.411507 0.12153 0 255 0
-0.421721 -0.262463 0.0899826 0 255 0
-0.373567 -0.30119 0.109912 0 255 0
-0.269398 -0.413659 0.0501744 0 255 0
0.0593934 0.155282 0.180241 0 255 0
-0.489142 0.012124 0.0880608 0 255 0
-0.496123 0.0526784 0.07431 0 255 0
-0.204262 0.351841 0.362309 0 255 0
-0.480368 -0.164526 0.0486437 0 255 0
-0.483236 -0.215158 0.0573162 0 255 0
-0.460233 -0.260747 0.0609997 0 255 0
0.306562 0.553045 0.078719 0 255 0
0.361807 -0.304753 0.081785 0 255 0
0.42543 -0.233898 0.0772696 0 255 0
-0.51569 0.239407 0.144778 0 255 0
-0.524966 0.292415 0.125448 0 255 0
0.323718 -0.2115 0.221574 0 255 0
-0.205088 -0.188234 0.0485487 0 255 0
0.29279 -0.221611 0.236832 0 255 0
0.245271 0.441871 0.223503 0 255 0
-0.47822 -0.143449 0.0836283 0 255 0
0.00340581 0.37698 0.356222 0 255 0
-0.427584 -0.159768 0.13574 0 255 0
-0.514224 0.172472 0.128928 0 255 0
-0.460634 0.149647 0.184305 0 255 0
-0.333424 -0.359444 0.157674 0 255 0
-0.367313 -0.268053 0.105335 0 255 0
-0.284313 0.50084 0.289652 0 255 0
0.303774 0.651656 0.149031 0 255 0
-0.266417 -0.105603 0.0476599 0 255 0
0.0893964 0.325747 0.215022 0 255 0
-0.338949 0.0651279 0.28369 0 255 0
0.0138032 0.472394 0.393524 0 255 0
-0.433914 -0.276594 0.0472972 0 255 0
-0.369808 -0.292998 0.0483566 0 255 0
0.0774414 0.0135114 0.268155 0 255 0
0.0116771 0.507247 0.252257 0 255 0
0.397162 -0.37835 0.119037 0 255 0
0.472845 -0.284482 0.0871808 0 255 0
0.471374 -0.248676 0.0840616 0 255 0
0.439342 -0.269619 0.128796 0 255 0
0.427927 -0.233111 0.133664 0 255 0
-0.45038 0.0424346 0.132074 0 255 0
0.381689 0.250662 0.168195 0 255 0
0.24081 -0.29225 0.24218 0 255 0
0.30244 -0.239295 0.229129 0 255 0
0.132308 -0.352326 0.264952 0 255 0
-0.0436313 0.0253658 0.273912 0 255 0
-0.267515 0.334413 0.374721 0 255 0
-0.22028 0.241834 0.347625 0 255 0
-0.283666 0.302303 0.359496 0 255 0
-0.200219 0.302045 0.410365 0 255 0
-0.140508 0.167536 0.400731 0 255 0
0.263273 0.603521 0.0448588 0 255 0
0.305771 -0.0669865 0.297451 0 255 0
0.307699 -0.0230833 0.303258 0 255 0
0.315935 0.0576228 0.285636 0 255 0
-0.507665 0.405947 0.0484319 0 255 0
-0.135565 0.471969 0.188044 0 255 0
-0.3622 -0.0475163 0.299871 0 255 0
-0.0763642 0.19128 0.349733 0 255 0
0.188803 0.546488 0.297278 0 255 0
0.257454 0.546662 0.220826 0 255 0
0.270461 0.537344 0.217685 0 255 0
0.229435 0.467583 0.295119 0 255 0
0.215285 0.552191 0.27447 0 255 0
0.241708 0.527264 0.26564 0 255 0
-0.315615 -0.0174861 0.0348263 0 255 0
-0.469375 -0.202578 0.0811528 0 255 0
-0.461048 -0.179585 0.099514 0 255 0
-0.46037 -0.254123 0.0337316 0 255 0
0.174417 -0.199513 0.116852 0 255 0
0.278971 0.517178 0.213845 0 255 0
-0.262323 -0.294405 0.233557 0 255 0
0.135704 0.768613 0.0903881 0 255 0
0.0921696 0.737509 0.0978094 0 255 0
0.300194 0.556951 0.101689 0 255 0
-0.214948 0.228473 0.415721 0 255 0
-0.22092 0.275169 0.418187 0 255 0
-0.280505 0.205225 0.347988 0 255 0
-0.247556 0.303294 0.394348 0 255 0
-0.190052 0.27804 0.431379 0 255 0
0.0610199 0.7366 0.0789781 0 255 0
0.0331146 -0.00371395 0.313548 0 255 0
0.343988 0.283079 0.0505107 0 255 0
0.336769 0.396491 0.0883622 0 255 0
0.353576 0.564398 0.120349 0 255 0
-0.0640105 0.233088 0.253513 0 255 0
-0.0186591 -0.456113 0.0449084 0 255 0
-0.0172287 -0.0730444 0.402444 0 255 0
0.117772 0.58491 0.295233 0 255 0
-0.449471 0.00286302 0.132028 0 255 0
-0.417813 0.196783 0.0574699 0 255 0
0.159285 -0.155399 0.168842 0 255 0
-0.189202 -0.159507 0.120118 0 255 0
-0.278085 -0.346133 0.0395792 0 255 0
-0.0971235 0.0757749 0.233171 0 255 0
-0.547138 0.541217 0.0340674 0 255 0
-0.479329 -0.297003 0.0364402 0 255 0
-0.496476 0.132414 0.125171 0 255 0
0.408085 0.261897 0.0525657 0 255 0
0.379222 0.257369 0.100791 0 255 0
0.381676 0.271864 0.0795761 0 255 0
-0.531872 0.278686 0.0863606 0 255 0
-0.532126 0.30086 0.0666661 0 255 0
-0.529995 0.29259 0.101182 0 255 0
-0.532891 0.275764 0.0644058 0 255 0
-0.480049 0.407961 0.0899894 0 255 0
0.343443 0.304405 0.0817589 0 255 0
0.0890187 0.616404 0.222803 0 255 0
0.121682 0.61797 0.218332 0 255 0
-0.127798 0.498815 0.371813 0 255 0
-0.10941 0.329309 0.341049 0 255 0
-0.0491973 0.475126 0.260578 0 255 0
0.323738 0.592628 0.130084 0 255 0
-0.0225746 -0.0751034 0.359228 0 255 0
0.392914 0.532153 0.103734 0 255 0
0.321559 0.530575 0.15444 0 255 0
-0.436839 0.140704 0.0341907 0 255 0
-0.526983 0.400311 0.0463257 0 255 0
-0.522381 0.440765 0.03489 0 255 0
0.38079 0.366978 0.0340895 0 255 0
0.353803 -0.130032 0.234539 0 255 0
0.37235 -0.096793 0.177156 0 255 0
0.031777 0.31159 0.374857 0 255 0
-0.393144 0.741698 0.0333747 0 255 0
0.385725 0.496258 0.101435 0 255 0
-0.487265 0.29191 0.193191 0 255 0
0.331531 0.424272 0.146069 0 255 0
0.362901 0.437683 0.0991735 0 255 0
-0.315792 0.465737 0.299463 0 255 0
-0.0282898 0.0415447 0.252911 0 255 0
0.423359 0.430307 0.0659656 0 255 0
0.411889 0.648281 0.0453893 0 255 0
0.399445 0.126696 0.191608 0 255 0
0.0944603 0.462717 0.292991 0 255 0
-0.45194 0.397206 0.235057 0 255 0
-0.499719 0.448486 0.201752 0 255 0
-0.435358 0.587491 0.178708 0 255 0
-0.430269 0.553988 0.216887 0 255 0
-0.196433 -0.413534 0.137466 0 255 0
-0.300457 0.374471 0.344308 0 255 0
-0.211115 0.393331 0.427379 0 255 0
-0.286079 0.388467 0.367341 0 255 0
-0.230293 0.359552 0.415594 0 255 0
-0.241311 0.394455 0.415596 0 255 0
-0.279 0.426152 0.383731 0 255 0
-0.294791 0.430117 0.362371 0 255 0
-0.216724 0.420004 0.428248 0 255 0
-0.0270903 -0.079685 0.378363 0 255 0
0.408387 0.164954 0.166 0 255 0
0.330205 0.179371 0.227733 0 255 0
0.375651 0.188695 0.174035 0 255 0
0.375104 0.195238 0.0502952 0 255 0
0.352785 -0.426696 0.073319 0 255 0
-0.528113 0.317544 0.095655 0 255 0
-0.0345425 0.21079 0.267779 0 255 0
-0.0107593 0.0804102 0.258155 0 255 0
-0.29675 0.562931 0.246748 0 255 0
0.258597 -0.167971 0.320903 0 255 0
0.194911 0.394348 0.352804 0 255 0
0.157955 0.499578 0.379607 0 255 0
0.123575 0.399353 0.424462 0 255 0
0.0831892 0.474557 0.429374 0 255 0
0.127529 0.44575 0.386609 0 255 0
0.212609 0.696173 0.0920597 0 255 0
0.208551 0.708672 0.0634265 0 255 0
0.245285 0.670034 0.123632 0 255 0
0.234758 0.69418 0.0960545 0 255 0
-0.345526 0.519593 0.264463 0 255 0
0.193806 0.683028 0.103946 0 255 0
-0.0824053 -0.119246 0.385789 0 255 0
0.259985 0.660095 0.128719 0 255 0
0.0134646 -0.0699965 0.379402 0 255 0
-0.260074 -0.287318 0.285958 0 255 0
-0.0636374 0.477043 0.429389 0 255 0
0.0159687 0.447977 0.393494 0 255 0
-0.19709 0.0222151 0.173496 0 255 0
0.230584 0.663355 0.0936104 0 255 0
-0.0306978 0.441534 0.375383 0 255 0
-0.139209 0.53533 0.388507 0 255 0
-0.131994 0.562423 0.352776 0 255 0
0.398034 0.15721 0.197441 0 255 0
0.404474 0.182811 0.186883 0 255 0
0.369948 0.166911 0.218257 0 255 0
0.357988 0.150192 0.224209 0 255 0
0.0442274 0.161386 0.238145 0 255 0
-0.0828388 0.437777 0.415367 0 255 0
-0.474757 0.190386 0.116646 0 255 0
-0.45158 0.249967 0.1802 0 255 0
-0.00660749 0.277272 0.351275 0 255 0
-0.0825341 -0.0720252 0.447745 0 255 0
0.215953 0.343597 0.308981 0 255 0
0.251892 0.315948 0.284647 0 255 0
0.234101 0.301782 0.303788 0 255 0
0.274072 0.331337 0.275377 0 255 0
0.186013 0.550392 0.27245 0 255 0
0.411364 0.286555 0.0791442 0 255 0
0.270189 0.353212 0.22771 0 255 0
-0.169919 0.402748 0.381907 0 255 0
-0.00125076 0.345847 0.307651 0 255 0
0.230129 0.480375 0.242085 0 255 0
0.168879 0.528101 0.220871 0 255 0
0.107143 0.469683 0.216567 0 255 0
0.134886 0.214043 0.402464 0 255 0
0.0935357 0.248101 0.43027 0 255 0
0.150874 0.257815 0.410149 0 255 0
0.217364 0.300291 0.319525 0 255 0
0.0477177 0.439173 0.372147 0 255 0
0.0800629 0.43998 0.371777 0 255 0
0.132828 0.316638 0.419392 0 255 0
0.145517 0.283276 0.407653 0 255 0
-0.485249 0.35356 0.19112 0 255 0
-0.456855 -0.302946 0.0924924 0 255 0
-0.502201 0.364912 0.179372 0 255 0
-0.484307 0.37678 0.20002 0 255 0
-0.484025 0.307142 0.133065 0 255 0
-0.511861 0.436921 0.183595 0 255 0
-0.515391 0.468571 0.167164 0 255 0
-0.437093 0.377404 0.237293 0 255 0
-0.45223 0.432455 0.241876 0 255 0
-0.42689 0.461029 0.252706 0 255 0
-0.451623 0.471871 0.221944 0 255 0
0.445227 0.204974 0.0660874 0 255 0
0.449434 0.175039 0.0900144 0 255 0
-0.0799102 0.326371 0.330393 0 255 0
0.158037 0.396485 0.395216 0 255 0
-0.0198753 0.474866 0.417631 0 255 0
0.173037 0.475504 0.348462 0 255 0
0.0662921 0.426432 0.438739 0 255 0
0.0942142 0.445253 0.432856 0 255 0
-0.00231938 0.106522 0.311854 0 255 0
0.0230869 0.432499 0.367161 0 255 0
0.266953 0.44525 0.22812 0 255 0
-0.368517 0.60305 0.0596821 0 255 0
0.281014 -0.253323 0.264674 0 255 0
0.280562 -0.259331 0.235741 0 255 0
-0.296216 -0.221953 0.299516 0 255 0
-0.320608 -0.227689 0.276832 0 255 0
-0.209024 -0.326527 0.21483 0 255 0
-0.497027 0.488109 0.184121 0 255 0
-0.469533 0.440604 0.228718 0 255 0
-0.527525 0.396796 0.102473 0 255 0
0.411042 0.333789 0.0681591 0 255 0
0.0488448 0.012865 0.312589 0 255 0
0.120464 0.438371 0.420838 0 255 0
0.0167937 0.00509696 0.406741 0 255 0
0.333243 0.571826 0.0633307 0 255 0
0.376483 0.549191 0.0437386 0 255 0
-0.2316 0.456555 0.417762 0 255 0
0.0371206 0.0302874 0.298255 0 255 0
