ply
format ascii 1.0
comment Created by Open3D
element vertex 494
property double x
property double y
property double z
property uchar red
property uchar green
property uchar blue
end_header
0.213911 -0.446579 0.0483272 255 0 255
-0.489435 0.546559 0.12946 255 0 255
-0.24052 -0.476353 0.0622675 255 0 255
-0.15327 -0.472842 0.047244 255 0 255
-0.0935962 -0.462061 0.0671794 255 0 255
-0.538357 0.330848 0.0334919 255 0 255
-0.542432 0.37957 0.0334915 255 0 255
-0.469738 0.525023 0.14633 255 0 255
-0.521817 0.476603 0.0984349 255 0 255
-0.530717 0.239495 0.0640503 255 0 255
-0.542432 0.37957 0.0579373 255 0 255
-0.500333 0.420746 0.155616 255 0 255
-0.545488 0.416111 0.0579371 255 0 255
0.19636 0.793612 0.0430286 255 0 255
0.147379 0.779288 0.109718 255 0 255
0.0889857 0.631569 0.243255 255 0 255
-0.259486 -0.468133 0.0878672 255 0 255
-0.274776 -0.473714 0.0722487 255 0 255
-0.22102 -0.480876 0.0496695 255 0 255
0.0598993 -0.398424 0.137929 255 0 255
0.347797 0.552153 0.13969 255 0 255
0.359507 0.14733 0.191117 255 0 255
0.364785 -0.368279 0.136061 255 0 255
0.321125 -0.387551 0.126761 255 0 255
-0.030669 -0.350808 0.264868 255 0 255
-0.063652 0.742035 0.0644866 255 0 255
-0.165014 0.724605 0.0811715 255 0 255
-0.121697 0.710529 0.0826166 255 0 255
-0.16257 0.668973 0.154079 255 0 255
-0.177681 0.760891 0.0508332 255 0 255
-0.531061 0.539454 0.0901173 255 0 255
0.193732 0.587033 0.230186 255 0 255
-0.257848 0.524914 0.315585 255 0 255
-0.308427 -0.360067 0.122644 255 0 255
-0.267732 -0.448851 0.106143 255 0 255
-0.254326 -0.486645 0.0405123 255 0 255
-0.386147 -0.308009 0.138151 255 0 255
-0.126382 -0.450458 0.093428 255 0 255
-0.190255 -0.479704 0.0458791 255 0 255
-0.448683 -0.247565 0.107938 255 0 255
-0.47768 -0.220847 0.0401562 255 0 255
-0.426811 -0.237151 0.129075 255 0 255
-0.443234 -0.165265 0.0985032 255 0 255
-0.542956 0.525399 0.0641765 255 0 255
0.150135 0.766374 0.0398003 255 0 255
0.136719 0.781879 0.0522367 255 0 255
0.151471 0.678981 0.201761 255 0 255
0.0845385 0.769104 0.0664653 255 0 255
0.185087 0.738458 0.117358 255 0 255
0.169981 0.773378 0.133412 255 0 255
0.15462 0.652793 0.206424 255 0 255
0.17538 0.786741 0.104733 255 0 255
0.265798 0.664152 0.190547 255 0 255
0.383815 -0.2559 0.142058 255 0 255
-0.44087 -0.164883 0.0508425 255 0 255
0.140143 -0.318953 0.246225 255 0 255
-0.1586 -0.303365 0.316481 255 0 255
-0.178933 -0.323085 0.306632 255 0 255
-0.144126 -0.348462 0.297309 255 0 255
-0.184537 -0.348264 0.272647 255 0 255
-0.101894 -0.345383 0.293559 255 0 255
-0.215549 0.760324 0.0392018 255 0 255
-0.104012 -0.323777 0.310376 255 0 255
-0.222043 -0.322636 0.250509 255 0 255
-0.208182 0.719772 0.085098 255 0 255
-0.256452 0.7561 0.0419626 255 0 255
-0.248042 0.702455 0.0910905 255 0 255
-0.0560818 -0.470553 0.0457234 255 0 255
-0.128428 0.725237 0.0594737 255 0 255
-0.492206 0.273086 0.0504842 255 0 255
-0.500982 0.319512 0.0656891 255 0 255
-0.299577 -0.425626 0.133898 255 0 255
-0.311454 -0.484728 0.0544816 255 0 255
-0.312603 -0.382319 0.153288 255 0 255
-0.240292 -0.392425 0.147555 255 0 255
-0.29007 -0.325094 0.186498 255 0 255
-0.185452 -0.307328 0.266294 255 0 255
-0.16057 0.559807 0.341316 255 0 255
-0.106326 0.564771 0.357696 255 0 255
-0.068497 0.554444 0.376361 255 0 255
-0.0734697 0.497993 0.429044 255 0 255
-0.372138 0.709943 0.101017 255 0 255
-0.330311 0.745168 0.0496097 255 0 255
-0.395282 0.729962 0.0745757 255 0 255
-0.294424 0.721912 0.0780813 255 0 255
-0.329373 0.730136 0.0797199 255 0 255
-0.370699 0.728839 0.0662475 255 0 255
-0.392473 0.712672 0.102974 255 0 255
-0.273837 0.731875 0.0418237 255 0 255
-0.262905 0.721208 0.0691182 255 0 255
-0.102491 0.492058 0.432778 255 0 255
0.276772 0.0351656 0.323906 255 0 255
-0.32735 -0.424812 0.132651 255 0 255
-0.35153 -0.377442 0.110686 255 0 255
-0.382161 -0.373545 0.101763 255 0 255
-0.360282 -0.348483 0.13319 255 0 255
-0.337222 -0.392377 0.105521 255 0 255
-0.0420517 -0.293238 0.353009 255 0 255
-0.0385928 -0.334461 0.306218 255 0 255
-0.028379 -0.365777 0.281894 255 0 255
-0.158916 0.500157 0.401981 255 0 255
-0.113027 0.56305 0.326393 255 0 255
0.239193 -0.26187 0.291663 255 0 255
0.168921 -0.294378 0.310712 255 0 255
0.226544 -0.23675 0.309188 255 0 255
0.339975 0.256492 0.190665 255 0 255
0.355993 0.223043 0.205373 255 0 255
-0.20782 0.532406 0.340164 255 0 255
0.19145 -0.28185 0.312264 255 0 255
-0.165382 0.526718 0.393407 255 0 255
0.226094 -0.30739 0.228606 255 0 255
-0.23342 -0.279382 0.261973 255 0 255
-0.0799873 -0.319788 0.281201 255 0 255
-0.439343 0.212474 0.198389 255 0 255
-0.246568 0.369712 0.391685 255 0 255
0.066111 0.737646 0.0416733 255 0 255
-0.504187 0.343521 0.142678 255 0 255
-0.517363 0.357077 0.0840936 255 0 255
0.0122663 -0.0810979 0.475572 255 0 255
-0.0138747 -0.031515 0.489703 255 0 255
0.288364 0.0670254 0.300605 255 0 255
-0.493585 0.459042 0.128644 255 0 255
0.093667 -0.457236 0.0407445 255 0 255
-0.0682333 -0.255073 0.358554 255 0 255
0.193509 0.587362 0.262815 255 0 255
0.148658 -0.448282 0.0497663 255 0 255
0.151635 0.559841 0.303964 255 0 255
0.27399 -0.44548 0.0348279 255 0 255
-0.197035 0.739781 0.0682027 255 0 255
-0.254014 0.731637 0.0992009 255 0 255
0.320088 -0.440731 0.0378412 255 0 255
-0.254783 0.679981 0.105492 255 0 255
0.182402 0.760231 0.10331 255 0 255
0.114634 0.747266 0.0806327 255 0 255
0.107738 0.765378 0.0366491 255 0 255
0.418649 -0.100528 0.110083 255 0 255
0.164061 0.748556 0.102106 255 0 255
0.24891 0.766163 0.0886466 255 0 255
0.135735 -0.436978 0.08603 255 0 255
0.0209334 0.77019 0.0698409 255 0 255
0.200748 -0.436602 0.0636223 255 0 255
0.199507 -0.398126 0.127106 255 0 255
0.0185055 0.75109 0.0919283 255 0 255
0.062666 0.710763 0.129908 255 0 255
0.00475461 -0.449448 0.0731872 255 0 255
0.0455494 -0.462322 0.0385082 255 0 255
0.016729 -0.403094 0.13308 255 0 255
-0.172898 0.0218146 0.41852 255 0 255
-0.042227 -0.0944726 0.480437 255 0 255
0.166527 0.230753 0.371504 255 0 255
0.0676096 -0.274899 0.352726 255 0 255
0.0961665 -0.257205 0.347616 255 0 255
0.130404 0.402381 0.386039 255 0 255
-0.435194 -0.304656 0.114175 255 0 255
-0.454431 -0.342582 0.0714116 255 0 255
-0.440021 -0.185066 0.0456238 255 0 255
-0.426147 -0.212254 0.101334 255 0 255
-0.464497 -0.354132 0.0416361 255 0 255
-0.0759195 0.628838 0.237174 255 0 255
-0.104259 0.609876 0.261479 255 0 255
0.10193 0.288573 0.400287 255 0 255
0.0582094 0.220291 0.421824 255 0 255
0.292473 -0.36525 0.121092 255 0 255
0.24097 -0.321878 0.232341 255 0 255
0.262979 -0.240073 0.275946 255 0 255
-0.0243655 0.571106 0.361174 255 0 255
-0.113702 0.531706 0.382328 255 0 255
0.0220403 0.571938 0.346766 255 0 255
-0.0134298 0.528539 0.409472 255 0 255
0.0396496 0.544672 0.386403 255 0 255
-0.303905 0.0621413 0.31064 255 0 255
-0.00787422 0.558164 0.378646 255 0 255
0.322928 -0.175583 0.250431 255 0 255
-0.0207296 0.583333 0.336792 255 0 255
-0.175006 0.0756086 0.396962 255 0 255
0.272252 0.783679 0.0839315 255 0 255
0.13085 0.61769 0.260203 255 0 255
0.104207 0.600552 0.252246 255 0 255
-0.0614779 0.531107 0.335596 255 0 255
-0.54793 0.566865 0.0504444 255 0 255
-0.536931 0.571656 0.0707378 255 0 255
-0.537298 0.590437 0.0541994 255 0 255
-0.439171 0.598493 0.149246 255 0 255
-0.25489 0.558912 0.290325 255 0 255
-0.290782 0.539409 0.287297 255 0 255
-0.186685 0.528758 0.31355 255 0 255
-0.446476 0.698871 0.0744278 255 0 255
-0.42526 0.667027 0.135436 255 0 255
0.112396 0.589722 0.267309 255 0 255
0.208741 0.517404 0.292123 255 0 255
0.163146 0.117238 0.359944 255 0 255
-0.501309 0.34927 0.0616406 255 0 255
-0.302994 0.48118 0.309213 255 0 255
0.000729411 0.745199 0.0753758 255 0 255
-0.239924 0.539405 0.334903 255 0 255
0.0415439 0.73123 0.131415 255 0 255
-0.0219958 0.68151 0.158621 255 0 255
-0.481765 -0.0978026 0.0444209 255 0 255
0.282432 0.389423 0.264264 255 0 255
0.382932 -0.192257 0.157493 255 0 255
0.231447 0.559294 0.199629 255 0 255
0.432088 -0.0364636 0.0647107 255 0 255
0.433099 0.131325 0.14853 255 0 255
0.407504 0.185752 0.0364148 255 0 255
0.359862 0.10438 0.258989 255 0 255
0.419979 0.0714866 0.205644 255 0 255
0.371416 0.13236 0.236741 255 0 255
0.446155 0.0886234 0.133433 255 0 255
0.446534 0.0530855 0.122838 255 0 255
0.434186 0.0256754 0.147075 255 0 255
0.440514 0.0934234 0.160103 255 0 255
0.42291 0.0243834 0.190247 255 0 255
0.419968 0.0983398 0.205277 255 0 255
0.398336 0.131039 0.217848 255 0 255
0.387467 0.572597 0.0690879 255 0 255
0.246475 0.204744 0.285089 255 0 255
0.100829 0.625987 0.207659 255 0 255
0.381759 0.385109 0.122073 255 0 255
-0.20865 0.295893 0.383398 255 0 255
0.468941 -0.177238 0.0794619 255 0 255
0.481772 -0.166419 0.0376436 255 0 255
0.449256 -0.141313 0.095528 255 0 255
0.396676 -0.2185 0.144904 255 0 255
0.413102 -0.164691 0.141322 255 0 255
0.455643 0.0942238 0.0352578 255 0 255
-0.473069 -0.0832202 0.0807288 255 0 255
-0.478511 -0.068514 0.0340138 255 0 255
-0.460675 -0.0806501 0.057582 255 0 255
-0.483653 0.18791 0.154197 255 0 255
-0.450709 0.051814 0.0994819 255 0 255
0.124099 0.48614 0.411536 255 0 255
-0.190418 0.21734 0.385095 255 0 255
-0.164683 0.19953 0.403288 255 0 255
-0.345114 0.421347 0.292724 255 0 255
-0.319774 0.505568 0.293587 255 0 255
-0.339158 0.463741 0.293677 255 0 255
-0.243028 -0.350311 0.20763 255 0 255
-0.311328 -0.276714 0.238756 255 0 255
-0.109564 0.465948 0.430816 255 0 255
-0.0847968 -0.290253 0.343835 255 0 255
0.383794 0.3647 0.126996 255 0 255
-0.150789 0.481194 0.424196 255 0 255
-0.206829 0.36663 0.392402 255 0 255
-0.352775 0.330417 0.296876 255 0 255
-0.334134 0.345553 0.310037 255 0 255
-0.195581 0.462926 0.381581 255 0 255
-0.174082 0.50227 0.355388 255 0 255
-0.148748 0.502016 0.361821 255 0 255
-0.218914 0.309703 0.374827 255 0 255
-0.0513999 -0.27112 0.326319 255 0 255
-0.2173 0.243036 0.381147 255 0 255
-0.131522 0.192124 0.403602 255 0 255
0.0163995 -0.0113799 0.487222 255 0 255
-0.0399934 -0.372946 0.25318 255 0 255
-0.316683 -0.122998 0.301872 255 0 255
-0.372642 -0.0802645 0.277587 255 0 255
0.353471 0.327446 0.144917 255 0 255
0.25849 -0.41352 0.105948 255 0 255
-0.249893 0.724824 0.0473898 255 0 255
-0.218222 0.697441 0.0969494 255 0 255
0.355774 0.602102 0.12662 255 0 255
0.36499 0.628086 0.080353 255 0 255
0.470164 -0.0724687 0.0587678 255 0 255
0.452436 -0.0617449 0.0944452 255 0 255
0.430344 -0.0619879 0.123499 255 0 255
0.462413 -0.0200649 0.065572 255 0 255
-0.459998 -0.0489598 0.112994 255 0 255
-0.460055 -0.0954105 0.110025 255 0 255
-0.460751 -0.00823352 0.107726 255 0 255
-0.499235 0.00791388 0.05172 255 0 255
-0.496022 -0.0544343 0.0512599 255 0 255
0.470438 -0.138109 0.0502473 255 0 255
0.0650312 0.253123 0.430853 255 0 255
0.200375 0.39678 0.293879 255 0 255
-0.440005 0.499814 0.235377 255 0 255
0.436198 0.141082 0.0383315 255 0 255
0.0767469 0.249724 0.408805 255 0 255
0.121942 0.30118 0.386527 255 0 255
0.12962 0.336767 0.364404 255 0 255
-0.38645 -0.162121 0.202945 255 0 255
0.190078 0.514827 0.281281 255 0 255
-0.3643 -0.167156 0.24487 255 0 255
0.333727 -0.151973 0.245552 255 0 255
0.0448121 0.336768 0.384188 255 0 255
0.101328 0.48346 0.387091 255 0 255
-0.500486 0.332245 0.0469638 255 0 255
-0.533872 0.43364 0.100617 255 0 255
0.423938 0.270816 0.0871818 255 0 255
-0.491251 0.650971 0.0655166 255 0 255
-0.423516 0.628517 0.139676 255 0 255
0.086526 0.510593 0.415949 255 0 255
0.181431 0.315223 0.372685 255 0 255
0.173335 0.430335 0.373521 255 0 255
0.169457 0.368924 0.38005 255 0 255
0.158951 0.312679 0.370481 255 0 255
0.293559 0.35528 0.243903 255 0 255
0.388153 0.612807 0.0980223 255 0 255
0.232299 0.380547 0.309942 255 0 255
-0.510683 0.517769 0.0495631 255 0 255
-0.521067 0.417843 0.0791665 255 0 255
-0.513534 0.496788 0.0390256 255 0 255
-0.518864 0.342666 0.11481 255 0 255
0.117966 0.623246 0.242266 255 0 255
0.40525 0.618307 0.0664839 255 0 255
0.320628 0.570614 0.157276 255 0 255
0.366993 0.633089 0.124134 255 0 255
0.34008 0.634802 0.142923 255 0 255
0.41435 0.568702 0.056233 255 0 255
0.384891 0.119099 0.167354 255 0 255
-0.328965 0.717044 0.0621786 255 0 255
-0.417605 0.743356 0.0362189 255 0 255
-0.525105 0.246332 0.0962402 255 0 255
0.488995 -0.252284 0.0372816 255 0 255
0.486123 -0.216175 0.0371789 255 0 255
-0.422537 -0.278222 0.105894 255 0 255
-0.42696 -0.38004 0.114393 255 0 255
-0.396794 -0.411507 0.12153 255 0 255
-0.421721 -0.262463 0.0899826 255 0 255
-0.373567 -0.30119 0.109912 255 0 255
-0.489142 0.012124 0.0880608 255 0 255
-0.496123 0.0526784 0.07431 255 0 255
-0.480368 -0.164526 0.0486437 255 0 255
-0.483236 -0.215158 0.0573162 255 0 255
-0.460233 -0.260747 0.0609997 255 0 255
0.42543 -0.233898 0.0772696 255 0 255
-0.51569 0.239407 0.144778 255 0 255
-0.524966 0.292415 0.125448 255 0 255
0.323718 -0.2115 0.221574 255 0 255
0.29279 -0.221611 0.236832 255 0 255
0.245271 0.441871 0.223503 255 0 255
-0.47822 -0.143449 0.0836283 255 0 255
-0.427584 -0.159768 0.13574 255 0 255
-0.514224 0.172472 0.128928 255 0 255
-0.460634 0.149647 0.184305 255 0 255
-0.333424 -0.359444 0.157674 255 0 255
-0.367313 -0.268053 0.105335 255 0 255
-0.284313 0.50084 0.289652 255 0 255
0.303774 0.651656 0.149031 255 0 255
-0.338949 0.0651279 0.28369 255 0 255
0.0138032 0.472394 0.393524 255 0 255
-0.433914 -0.276594 0.0472972 255 0 255
0.397162 -0.37835 0.119037 255 0 255
0.472845 -0.284482 0.0871808 255 0 255
0.471374 -0.248676 0.0840616 255 0 255
0.439342 -0.269619 0.128796 255 0 255
0.427927 -0.233111 0.133664 255 0 255
-0.45038 0.0424346 0.132074 255 0 255
0.381689 0.250662 0.168195 255 0 255
0.24081 -0.29225 0.24218 255 0 255
0.30244 -0.239295 0.229129 255 0 255
0.132308 -0.352326 0.264952 255 0 255
-0.267515 0.334413 0.374721 255 0 255
-0.283666 0.302303 0.359496 255 0 255
-0.200219 0.302045 0.410365 255 0 255
-0.140508 0.167536 0.400731 255 0 255
0.305771 -0.0669865 0.297451 255 0 255
0.307699 -0.0230833 0.303258 255 0 255
0.315935 0.0576228 0.285636 255 0 255
-0.507665 0.405947 0.0484319 255 0 255
-0.3622 -0.0475163 0.299871 255 0 255
0.188803 0.546488 0.297278 255 0 255
0.257454 0.546662 0.220826 255 0 255
0.270461 0.537344 0.217685 255 0 255
0.229435 0.467583 0.295119 255 0 255
0.215285 0.552191 0.27447 255 0 255
0.241708 0.527264 0.26564 255 0 255
-0.469375 -0.202578 0.0811528 255 0 255
-0.461048 -0.179585 0.099514 255 0 255
-0.46037 -0.254123 0.0337316 255 0 255
0.278971 0.517178 0.213845 255 0 255
-0.262323 -0.294405 0.233557 255 0 255
0.135704 0.768613 0.0903881 255 0 255
0.0921696 0.737509 0.0978094 255 0 255
-0.214948 0.228473 0.415721 255 0 255
-0.22092 0.275169 0.418187 255 0 255
-0.280505 0.205225 0.347988 255 0 255
-0.247556 0.303294 0.394348 255 0 255
-0.190052 0.27804 0.431379 255 0 255
0.0610199 0.7366 0.0789781 255 0 255
0.353576 0.564398 0.120349 255 0 255
-0.0186591 -0.456113 0.0449084 255 0 255
0.117772 0.58491 0.295233 255 0 255
-0.449471 0.00286302 0.132028 255 0 255
-0.547138 0.541217 0.0340674 255 0 255
-0.479329 -0.297003 0.0364402 255 0 255
-0.496476 0.132414 0.125171 255 0 255
0.408085 0.261897 0.0525657 255 0 255
0.379222 0.257369 0.100791 255 0 255
0.381676 0.271864 0.0795761 255 0 255
-0.531872 0.278686 0.0863606 255 0 255
-0.532126 0.30086 0.0666661 255 0 255
-0.529995 0.29259 0.101182 255 0 255
-0.532891 0.275764 0.0644058 255 0 255
0.0890187 0.616404 0.222803 255 0 255
0.121682 0.61797 0.218332 255 0 255
-0.127798 0.498815 0.371813 255 0 255
0.323738 0.592628 0.130084 255 0 255
0.392914 0.532153 0.103734 255 0 255
0.321559 0.530575 0.15444 255 0 255
-0.526983 0.400311 0.0463257 255 0 255
-0.522381 0.440765 0.03489 255 0 255
0.353803 -0.130032 0.234539 255 0 255
0.37235 -0.096793 0.177156 255 0 255
-0.393144 0.741698 0.0333747 255 0 255
0.385725 0.496258 0.101435 255 0 255
-0.487265 0.29191 0.193191 255 0 255
0.331531 0.424272 0.146069 255 0 255
-0.315792 0.465737 0.299463 255 0 255
0.423359 0.430307 0.0659656 255 0 255
0.411889 0.648281 0.0453893 255 0 255
0.399445 0.126696 0.191608 255 0 255
-0.45194 0.397206 0.235057 255 0 255
-0.499719 0.448486 0.201752 255 0 255
-0.435358 0.587491 0.178708 255 0 255
-0.430269 0.553988 0.216887 255 0 255
-0.196433 -0.413534 0.137466 255 0 255
-0.300457 0.374471 0.344308 255 0 255
-0.211115 0.393331 0.427379 255 0 255
-0.286079 0.388467 0.367341 255 0 255
-0.230293 0.359552 0.415594 255 0 255
-0.241311 0.394455 0.415596 255 0 255
-0.279 0.426152 0.383731 255 0 255
-0.294791 0.430117 0.362371 255 0 255
-0.216724 0.420004 0.428248 255 0 255
0.408387 0.164954 0.166 255 0 255
0.330205 0.179371 0.227733 255 0 255
0.375651 0.188695 0.174035 255 0 255
0.352785 -0.426696 0.073319 255 0 255
-0.528113 0.317544 0.095655 255 0 255
-0.29675 0.562931 0.246748 255 0 255
0.258597 -0.167971 0.320903 255 0 255
0.194911 0.394348 0.352804 255 0 255
0.157955 0.499578 0.379607 255 0 255
0.123575 0.399353 0.424462 255 0 255
0.0831892 0.474557 0.429374 255 0 255
0.127529 0.44575 0.386609 255 0 255
-0.345526 0.519593 0.264463 255 0 255
-0.260074 -0.287318 0.285958 255 0 255
-0.0636374 0.477043 0.429389 255 0 255
0.0159687 0.447977 0.393494 255 0 255
-0.139209 0.53533 0.388507 255 0 255
-0.131994 0.562423 0.352776 255 0 255
0.398034 0.15721 0.197441 255 0 255
0.404474 0.182811 0.186883 255 0 255
0.369948 0.166911 0.218257 255 0 255
0.357988 0.150192 0.224209 255 0 255
-0.0828388 0.437777 0.415367 255 0 255
-0.474757 0.190386 0.116646 255 0 255
-0.45158 0.249967 0.1802 255 0 255
-0.0825341 -0.0720252 0.447745 255 0 255
0.215953 0.343597 0.308981 255 0 255
0.251892 0.315948 0.284647 255 0 255
0.234101 0.301782 0.303788 255 0 255
0.274072 0.331337 0.275377 255 0 255
0.186013 0.550392 0.27245 255 0 255
0.411364 0.286555 0.0791442 255 0 255
0.270189 0.353212 0.22771 255 0 255
0.230129 0.480375 0.242085 255 0 255
0.134886 0.214043 0.402464 255 0 255
0.0935357 0.248101 0.43027 255 0 255
0.150874 0.257815 0.410149 255 0 255
0.217364 0.300291 0.319525 255 0 255
0.132828 0.316638 0.419392 255 0 255
0.145517 0.283276 0.407653 255 0 255
-0.485249 0.35356 0.19112 255 0 255
-0.456855 -0.302946 0.0924924 255 0 255
-0.502201 0.364912 0.179372 255 0 255
-0.484307 0.37678 0.20002 255 0 255
-0.484025 0.307142 0.133065 255 0 255
-0.511861 0.436921 0.183595 255 0 255
-0.515391 0.468571 0.167164 255 0 255
-0.437093 0.377404 0.237293 255 0 255
-0.45223 0.432455 0.241876 255 0 255
-0.42689 0.461029 0.252706 255 0 255
-0.451623 0.471871 0.221944 255 0 255
0.445227 0.204974 0.0660874 255 0 255
0.449434 0.175039 0.0900144 255 0 255
0.158037 0.396485 0.395216 255 0 255
-0.0198753 0.474866 0.417631 255 0 255
0.173037 0.475504 0.348462 255 0 255
0.0662921 0.426432 0.438739 255 0 255
0.0942142 0.445253 0.432856 255 0 255
0.266953 0.44525 0.22812 255 0 255
0.281014 -0.253323 0.264674 255 0 255
0.280562 -0.259331 0.235741 255 0 255
-0.296216 -0.221953 0.299516 255 0 255
-0.320608 -0.227689 0.276832 255 0 255
-0.497027 0.488109 0.184121 255 0 255
-0.469533 0.440604 0.228718 255 0 255
-0.527525 0.396796 0.102473 255 0 255
0.411042 0.333789 0.0681591 255 0 255
0.120464 0.438371 0.420838 255 0 255
0.376483 0.549191 0.0437386 255 0 255
-0.2316 0.456555 0.417762 255 0 255
