ply
format ascii 1.0
comment Created by Open3D
element vertex 94
property double x
property double y
property double z
property uchar red
property uchar green
property uchar blue
end_header
0.207329 -0.44159 0.0559748 255 0 0
-0.479586 0.535791 0.137895 255 0 0
-0.310269 -0.408033 0.100302 255 0 0
-0.0579929 -0.457727 0.0648853 255 0 0
-0.504998 0.374616 0.124586 255 0 0
0.19636 0.793612 0.0430286 255 0 0
0.105872 0.755275 0.0876869 255 0 0
0.152965 0.589131 0.254885 255 0 0
0.0383142 -0.400759 0.135504 255 0 0
0.361406 0.595624 0.106491 255 0 0
0.399118 0.120828 0.189113 255 0 0
0.343886 -0.374858 0.125738 255 0 0
-0.0344086 -0.355998 0.27654 255 0 0
-0.063652 0.742035 0.0644866 255 0 0
-0.274246 0.726696 0.0697448 255 0 0
-0.16257 0.668973 0.154079 255 0 0
-0.533441 0.543698 0.0565414 255 0 0
-0.153033 0.515553 0.354044 255 0 0
-0.451842 -0.236155 0.07711 255 0 0
0.265798 0.664152 0.190547 255 0 0
0.407299 -0.222347 0.141373 255 0 0
0.136225 -0.33564 0.255588 255 0 0
-0.176283 -0.316933 0.281375 255 0 0
-0.218362 -0.40298 0.14251 255 0 0
-0.29007 -0.325094 0.186498 255 0 0
0.29369 0.0532713 0.303383 255 0 0
-0.0616204 -0.277421 0.345429 255 0 0
0.2927 -0.216485 0.254115 255 0 0
0.180185 -0.288114 0.311488 255 0 0
0.359219 0.243399 0.188078 255 0 0
0.235958 -0.307173 0.234375 255 0 0
-0.445461 0.231221 0.189294 255 0 0
-0.213396 0.305197 0.401189 255 0 0
0.0122663 -0.0810979 0.475572 255 0 0
0.00126241 -0.0214475 0.488463 255 0 0
0.0696082 -0.459779 0.0396264 255 0 0
0.142197 -0.44263 0.0678982 255 0 0
0.297039 -0.443105 0.0363346 255 0 0
0.444349 -0.0588763 0.0861796 255 0 0
0.260581 0.774921 0.086289 255 0 0
0.199507 -0.398126 0.127106 255 0 0
-0.172898 0.0218146 0.41852 255 0 0
-0.042227 -0.0944726 0.480437 255 0 0
0.122716 0.273442 0.399807 255 0 0
0.081888 -0.266052 0.350171 255 0 0
0.130272 0.442341 0.397697 255 0 0
-0.090089 0.619357 0.249326 255 0 0
0.0396496 0.544672 0.386403 255 0 0
-0.321427 0.0636346 0.297165 255 0 0
-0.175006 0.0756086 0.396962 255 0 0
-0.430826 0.620382 0.150767 255 0 0
-0.446476 0.698871 0.0744278 255 0 0
0.163146 0.117238 0.359944 255 0 0
-0.0219958 0.68151 0.158621 255 0 0
-0.47185 -0.0262427 0.0840304 255 0 0
0.247224 0.34682 0.283202 255 0 0
0.259583 0.540119 0.212996 255 0 0
0.407504 0.185752 0.0364148 255 0 0
0.246475 0.204744 0.285089 255 0 0
0.382777 0.374904 0.124534 255 0 0
0.474254 -0.181923 0.0562236 255 0 0
0.455643 0.0942238 0.0352578 255 0 0
-0.492277 0.170795 0.131236 255 0 0
-0.243028 -0.350311 0.20763 255 0 0
-0.311328 -0.276714 0.238756 255 0 0
-0.343454 0.337985 0.303457 255 0 0
-0.195581 0.462926 0.381581 255 0 0
-0.316683 -0.122998 0.301872 255 0 0
-0.367421 -0.0638904 0.288729 255 0 0
0.353471 0.327446 0.144917 255 0 0
0.25849 -0.41352 0.105948 255 0 0
0.436198 0.141082 0.0383315 255 0 0
-0.375375 -0.164638 0.223907 255 0 0
0.0448121 0.336768 0.384188 255 0 0
0.402555 0.280382 0.077903 255 0 0
-0.491251 0.650971 0.0655166 255 0 0
0.45655 -0.255685 0.0828374 255 0 0
0.247451 0.455832 0.231236 255 0 0
-0.460634 0.149647 0.184305 255 0 0
0.306735 -0.0450349 0.300354 255 0 0
0.229435 0.467583 0.295119 255 0 0
-0.280505 0.205225 0.347988 255 0 0
0.389319 0.514206 0.102585 255 0 0
0.37235 -0.096793 0.177156 255 0 0
-0.487265 0.29191 0.193191 255 0 0
0.331531 0.424272 0.146069 255 0 0
0.423359 0.430307 0.0659656 255 0 0
-0.430269 0.553988 0.216887 255 0 0
-0.290082 0.404802 0.364438 255 0 0
0.352785 -0.426696 0.073319 255 0 0
0.258597 -0.167971 0.320903 255 0 0
-0.0825341 -0.0720252 0.447745 255 0 0
0.447331 0.190007 0.0780509 255 0 0
-0.308412 -0.224821 0.288174 255 0 0
