ply
format ascii 1.0
comment Created by Open3D
element vertex 48
property double x
property double y
property double z
property uchar red
property uchar green
property uchar blue
end_header
-0.332199 -0.283949 0.0832159 255 0 0
-0.501698 0.422709 0.11915 255 0 0
0.110181 0.7571 0.0855603 255 0 0
0.181051 0.563507 0.247804 255 0 0
0.0383142 -0.400759 0.135504 255 0 0
0.359313 0.590661 0.110504 255 0 0
0.394131 0.13615 0.188983 255 0 0
0.343886 -0.374858 0.125738 255 0 0
-0.145389 -0.316913 0.282489 255 0 0
-0.063652 0.742035 0.0644866 255 0 0
-0.28087 0.725625 0.0699249 255 0 0
-0.16257 0.668973 0.154079 255 0 0
-0.182269 0.440709 0.368192 255 0 0
0.444051 -0.168854 0.0929127 255 0 0
0.136225 -0.33564 0.255588 255 0 0
-0.218362 -0.40298 0.14251 255 0 0
0.29369 0.0532713 0.303383 255 0 0
0.267996 -0.242443 0.257586 255 0 0
-0.459396 0.25145 0.190593 255 0 0
-0.021994 -0.0580981 0.476136 255 0 0
0.315621 -0.437636 0.0486627 255 0 0
0.260581 0.774921 0.086289 255 0 0
0.199507 -0.398126 0.127106 255 0 0
-0.173952 0.0487116 0.407741 255 0 0
0.156865 0.359346 0.369812 255 0 0
0.081888 -0.266052 0.350171 255 0 0
-0.090089 0.619357 0.249326 255 0 0
-0.321427 0.0636346 0.297165 255 0 0
0.163146 0.117238 0.359944 255 0 0
-0.0219958 0.68151 0.158621 255 0 0
0.438801 0.160214 0.0532212 255 0 0
0.246475 0.204744 0.285089 255 0 0
0.373008 0.359085 0.131328 255 0 0
-0.485949 0.166566 0.141849 255 0 0
-0.316683 -0.122998 0.301872 255 0 0
-0.367421 -0.0638904 0.288729 255 0 0
0.25849 -0.41352 0.105948 255 0 0
-0.375375 -0.164638 0.223907 255 0 0
0.0448121 0.336768 0.384188 255 0 0
0.402555 0.280382 0.077903 255 0 0
-0.491251 0.650971 0.0655166 255 0 0
0.306735 -0.0450349 0.300354 255 0 0
-0.280505 0.205225 0.347988 255 0 0
0.37235 -0.096793 0.177156 255 0 0
0.331531 0.424272 0.146069 255 0 0
0.423359 0.430307 0.0659656 255 0 0
0.258597 -0.167971 0.320903 255 0 0
-0.308412 -0.224821 0.288174 255 0 0
