ply
format ascii 1.0
comment Created by Open3D
element vertex 916
property double x
property double y
property double z
property uchar red
property uchar green
property uchar blue
end_header
-0.112765 0.187393 0.576447 0 255 0
0.118422 0.00128873 0.702694 0 255 0
0.0108803 0.505909 0.12411 0 255 0
-0.0366905 0.458003 0.168234 0 255 0
0.0803338 0.514203 0.105193 0 255 0
-0.129117 0.474929 0.154916 0 255 0
0.136795 0.513751 0.0978906 0 255 0
0.0464416 0.498682 0.129298 0 255 0
0.0514461 0.479974 0.147883 0 255 0
0.215039 0.51547 0.0700714 0 255 0
-0.179765 0.505909 0.120327 0 255 0
0.0295215 0.533212 0.0669921 0 255 0
-0.0829011 0.534837 0.0673693 0 255 0
0.189624 0.473135 0.128157 0 255 0
0.102596 0.483611 0.138322 0 255 0
-0.118063 0.498571 0.136576 0 255 0
-0.115137 0.526967 0.0913361 0 255 0
-0.205285 0.472823 0.152237 0 255 0
-0.213183 0.507542 0.11898 0 255 0
0.143739 0.527406 0.0677397 0 255 0
0.0736067 0.474358 0.146986 0 255 0
0.13643 0.446384 0.128704 0 255 0
0.166954 0.315574 0.110095 0 255 0
-0.0942937 0.434333 0.145025 0 255 0
0.169142 0.429099 0.124862 0 255 0
0.128083 0.429372 0.0952563 0 255 0
0.00712612 0.425168 0.103558 0 255 0
0.0565605 0.440987 0.100995 0 255 0
0.140909 0.450425 0.0939026 0 255 0
0.223164 0.41153 0.11053 0 255 0
-0.0585241 0.427058 0.127402 0 255 0
0.213764 0.230802 0.0765372 0 255 0
0.2147 0.187365 0.121166 0 255 0
0.137826 0.159214 0.0682703 0 255 0
0.182071 0.18365 0.131988 0 255 0
0.171838 0.262531 0.102235 0 255 0
0.0512618 0.353807 0.0906603 0 255 0
0.0372283 0.128236 0.0794403 0 255 0
-0.0218987 0.408847 0.0977715 0 255 0
0.16294 0.409683 0.0740467 0 255 0
0.241047 0.231288 0.0990674 0 255 0
0.151626 0.32405 0.0806298 0 255 0
-0.0463156 0.382523 0.0904284 0 255 0
0.162365 0.24304 0.106059 0 255 0
-0.282115 0.283611 0.0830565 0 255 0
0.0938174 0.122729 0.0837818 0 255 0
0.170269 0.199399 0.0688275 0 255 0
-0.0480222 0.341859 0.0833516 0 255 0
-0.312419 0.270927 0.088019 0 255 0
0.211313 0.129999 0.128056 0 255 0
0.301641 0.246325 0.100158 0 255 0
0.198418 0.0987611 0.0790722 0 255 0
0.250934 0.132225 0.0785273 0 255 0
0.0701337 0.120441 0.0801424 0 255 0
-0.246678 0.00992486 0.0657843 0 255 0
-0.190975 0.0246942 0.0715149 0 255 0
-0.241011 0.294527 0.0789663 0 255 0
-0.181959 0.270811 0.0664343 0 255 0
0.231766 0.247463 0.665049 0 255 0
0.133827 0.268612 0.608961 0 255 0
0.265863 0.208647 0.658913 0 255 0
0.259072 0.216813 0.624891 0 255 0
0.220088 0.188844 0.535728 0 255 0
0.240985 0.198313 0.740009 0 255 0
0.138526 0.278713 0.655777 0 255 0
0.242714 0.218506 0.0826536 0 255 0
0.181365 0.263718 0.0718833 0 255 0
0.175659 0.155643 0.799421 0 255 0
0.187453 0.191276 0.518511 0 255 0
-0.257146 0.157165 0.0721128 0 255 0
-0.170175 0.138786 0.714694 0 255 0
-0.236003 0.128082 0.200933 0 255 0
-0.188201 0.186778 0.218891 0 255 0
0.0839796 0.195947 0.602849 0 255 0
0.179659 0.241543 0.271824 0 255 0
0.183712 0.117413 0.703366 0 255 0
0.250563 0.172476 0.253553 0 255 0
0.210131 0.221874 0.321052 0 255 0
0.181463 0.241677 0.340488 0 255 0
0.216394 0.21856 0.351778 0 255 0
-0.177313 0.04929 0.237342 0 255 0
-0.205547 0.161527 0.222193 0 255 0
0.138485 0.226804 0.902018 0 255 0
0.180593 0.195052 0.919593 0 255 0
0.178657 0.225794 0.864369 0 255 0
-0.113142 -0.0172801 0.67568 0 255 0
-0.147949 0.0405807 0.713795 0 255 0
0.145082 0.152159 0.668986 0 255 0
-0.22733 0.0464591 0.295224 0 255 0
0.00769154 0.0818423 0.703268 0 255 0
0.0128539 0.169207 0.945519 0 255 0
0.121516 0.222437 0.572616 0 255 0
0.170593 0.195481 0.866884 0 255 0
0.233983 0.172236 0.390472 0 255 0
0.113355 0.0995102 0.931898 0 255 0
0.249727 0.138099 0.416481 0 255 0
0.203817 0.207135 0.460315 0 255 0
0.230239 0.17683 0.423741 0 255 0
0.0745339 0.108575 0.470214 0 255 0
0.075753 0.206918 0.957273 0 255 0
0.0931489 0.22067 0.941148 0 255 0
0.0740947 0.114428 0.933765 0 255 0
0.0109747 0.15635 0.48865 0 255 0
0.0713641 0.160329 0.989504 0 255 0
-0.104501 -0.00973641 0.54932 0 255 0
0.123949 0.200844 0.922568 0 255 0
0.180343 0.183078 0.745268 0 255 0
0.0553489 0.132735 0.999802 0 255 0
0.190619 0.00684615 0.732771 0 255 0
0.21333 0.213265 0.806183 0 255 0
0.145579 0.170876 0.977298 0 255 0
-0.0923795 0.185758 0.895562 0 255 0
0.242804 0.147488 0.877464 0 255 0
0.0905844 0.139248 0.922032 0 255 0
0.229616 0.129542 0.929573 0 255 0
-0.0631917 0.174083 0.85296 0 255 0
0.00321968 0.124431 0.767317 0 255 0
0.0372816 0.156341 0.98959 0 255 0
0.199024 0.185846 0.891933 0 255 0
0.217247 -0.0273454 0.119985 0 255 0
0.0612032 0.107776 0.739976 0 255 0
0.201531 0.131683 0.927784 0 255 0
0.231518 0.104383 0.93494 0 255 0
0.0746546 0.160973 0.877748 0 255 0
-0.047925 0.200235 0.954382 0 255 0
-0.0121254 0.18213 0.972943 0 255 0
-0.00115045 0.110375 0.603724 0 255 0
0.0137829 0.154009 0.988276 0 255 0
-0.194275 0.165211 0.759954 0 255 0
0.216235 0.103064 0.920161 0 255 0
0.161838 0.126876 0.95254 0 255 0
0.11724 0.138166 0.927057 0 255 0
0.116706 0.202298 0.947334 0 255 0
-0.211289 0.133315 0.749189 0 255 0
0.196832 0.0842801 0.939001 0 255 0
-0.00222257 0.146083 0.616845 0 255 0
0.201121 0.0966405 0.972281 0 255 0
0.220284 0.147355 0.771629 0 255 0
0.00516219 0.139163 0.580412 0 255 0
0.214128 0.150252 0.543895 0 255 0
0.268774 0.151027 0.619878 0 255 0
0.204818 0.0432518 0.966987 0 255 0
-0.0915705 0.201768 0.587303 0 255 0
-0.188035 0.158585 0.538012 0 255 0
-0.0691277 0.109953 0.772092 0 255 0
-0.131715 -0.0512739 0.886936 0 255 0
-0.0470741 0.131416 0.743591 0 255 0
-0.00366389 0.103664 0.721314 0 255 0
-0.187406 -0.0244545 0.818925 0 255 0
-0.094284 -0.0766369 0.859036 0 255 0
-0.114006 -0.0712901 0.704105 0 255 0
-0.185611 -0.0530362 0.593376 0 255 0
0.165766 0.0467887 0.992128 0 255 0
-0.101161 -0.0659312 0.574937 0 255 0
0.216611 0.0254545 0.925246 0 255 0
0.212522 0.0961669 0.955798 0 255 0
0.0986762 0.149507 0.543793 0 255 0
0.178359 -0.0816204 0.863721 0 255 0
0.169325 -0.0457878 0.753328 0 255 0
0.236307 0.00155798 0.920196 0 255 0
0.168495 -0.0864638 0.824106 0 255 0
0.13561 -0.105969 0.859325 0 255 0
0.169709 -0.076554 0.741279 0 255 0
0.390405 0.0462562 0.143027 0 255 0
0.365047 0.102233 0.135866 0 255 0
0.497746 0.0392684 0.103685 0 255 0
0.473195 0.0438024 0.131109 0 255 0
0.394145 0.072459 0.131413 0 255 0
-0.148601 0.163051 0.563065 0 255 0
-0.0113037 0.123495 0.691681 0 255 0
-0.0402096 0.132581 0.710302 0 255 0
-0.108995 -0.0756083 0.738092 0 255 0
0.328143 -0.0920201 0.106642 0 255 0
-0.0246001 0.0952793 0.738338 0 255 0
-0.175424 -0.0186878 0.750306 0 255 0
0.38182 0.00782323 0.120038 0 255 0
0.3372 -0.0623792 0.129531 0 255 0
0.399042 -0.00596296 0.0932672 0 255 0
0.478207 -0.00126509 0.127855 0 255 0
0.354527 -0.0214154 0.140286 0 255 0
0.203772 0.0734515 0.134189 0 255 0
0.175094 0.0559729 0.118482 0 255 0
-0.163488 -0.114563 0.74868 0 255 0
-0.1057 -0.127 0.772756 0 255 0
0.383252 -0.0352326 0.106003 0 255 0
0.164444 0.0103998 0.117949 0 255 0
0.370821 0.0655392 0.11439 0 255 0
0.366245 0.0391868 0.130983 0 255 0
0.499897 0.000646804 0.101614 0 255 0
0.247869 0.0127797 0.129256 0 255 0
-0.138753 0.0178517 0.607804 0 255 0
0.341008 0.125849 0.0752059 0 255 0
-0.109364 0.0305271 0.602021 0 255 0
0.51264 0.0270855 0.0679395 0 255 0
0.356782 -0.0772712 0.146878 0 255 0
-0.027053 0.10544 0.858724 0 255 0
0.0693637 0.13416 0.855217 0 255 0
0.04438 0.132618 0.854158 0 255 0
0.344943 -0.0990396 0.139207 0 255 0
0.042458 0.121378 0.880326 0 255 0
-0.015928 -0.0922993 0.906979 0 255 0
-0.0212769 -0.138517 0.830456 0 255 0
0.0632571 -0.141848 0.892621 0 255 0
0.0213178 -0.157838 0.835978 0 255 0
-0.164898 -0.0482937 0.622856 0 255 0
0.0143375 0.107949 0.849939 0 255 0
-0.128726 0.0598528 0.898216 0 255 0
-0.0984599 0.106212 0.829575 0 255 0
0.0977491 0.00156825 0.909077 0 255 0
-0.147136 0.0656597 0.86976 0 255 0
-0.223986 -0.0962674 0.746837 0 255 0
-0.190216 0.00974723 0.855546 0 255 0
-0.172991 0.0210817 0.88198 0 255 0
0.00896452 -0.122484 0.709224 0 255 0
-0.00110569 -0.143732 0.685492 0 255 0
-0.181706 -0.0513275 0.418111 0 255 0
-0.169447 -0.14643 0.720131 0 255 0
-0.0496946 -0.177688 0.686418 0 255 0
-0.0485488 -0.163449 0.709862 0 255 0
0.000946421 -0.140605 0.607647 0 255 0
-0.0342309 -0.142559 0.852828 0 255 0
-0.194544 0.0482581 0.87544 0 255 0
-0.227189 0.0355301 0.826978 0 255 0
0.487286 -0.0689059 0.117929 0 255 0
0.50178 -0.0714983 0.0980682 0 255 0
-0.0771303 0.00921737 0.909521 0 255 0
-0.153065 0.0304721 0.882754 0 255 0
0.121186 -0.13451 0.867419 0 255 0
-0.0372339 0.0175856 0.85602 0 255 0
0.00658874 -0.117473 0.560537 0 255 0
-0.112774 0.024289 0.905608 0 255 0
-0.126539 0.033124 0.877203 0 255 0
0.0799875 -0.0999821 0.966362 0 255 0
-0.194899 -0.107132 0.969383 0 255 0
-0.187953 -0.029262 0.964985 0 255 0
-0.217747 -0.134429 0.910933 0 255 0
-0.196765 -0.0611497 0.968622 0 255 0
-0.0204858 0.0185652 0.82313 0 255 0
-0.0968774 0.0386012 0.882987 0 255 0
-0.120625 0.0434787 0.831979 0 255 0
-0.0917734 0.0290227 0.907506 0 255 0
-0.00410699 -0.144863 0.321183 0 255 0
-0.096472 -0.157525 0.265295 0 255 0
-0.0355169 -0.138461 0.308122 0 255 0
-0.0753732 -0.226747 0.582835 0 255 0
-0.192137 -0.145639 0.771346 0 255 0
-0.112396 -0.0977044 0.2332 0 255 0
-0.1789 -0.166904 0.897873 0 255 0
-0.201496 -0.195738 0.889583 0 255 0
-0.110545 -0.0720112 0.208095 0 255 0
-0.213765 -0.136467 0.950574 0 255 0
0.23976 -0.184366 0.674825 0 255 0
-0.201656 -0.142512 0.924437 0 255 0
-0.200137 -0.189305 0.762902 0 255 0
-0.236594 -0.176471 0.875008 0 255 0
-0.193041 -0.112242 0.942088 0 255 0
0.494986 -0.12659 0.105754 0 255 0
0.160289 -0.00469063 0.574478 0 255 0
0.164563 0.0129882 0.586966 0 255 0
0.0102236 -0.202913 0.928948 0 255 0
0.506589 -0.11478 0.0865074 0 255 0
0.0629769 -0.181174 0.98656 0 255 0
0.182867 -0.169171 0.734405 0 255 0
0.14385 -0.190915 0.974439 0 255 0
0.0418204 -0.163417 0.921631 0 255 0
0.144076 -0.0447867 0.744667 0 255 0
-0.0776507 -0.211983 0.546348 0 255 0
-0.0883263 -0.226665 0.844459 0 255 0
0.22631 -0.174147 0.212173 0 255 0
-0.130613 -0.0570367 0.841802 0 255 0
0.0705497 -0.224699 0.934457 0 255 0
-0.148566 -0.212991 0.761599 0 255 0
0.121176 -0.24377 0.89301 0 255 0
0.162664 -0.15606 0.981889 0 255 0
-0.189067 -0.230765 0.527984 0 255 0
0.0264443 -0.122952 0.738695 0 255 0
-0.0368771 -0.121497 0.723807 0 255 0
-0.0935308 -0.107917 0.919572 0 255 0
-0.143473 -0.136965 0.842105 0 255 0
-0.171335 -0.20803 0.748385 0 255 0
0.137086 -0.0243434 0.732931 0 255 0
0.06065 -0.187228 0.909837 0 255 0
-0.0527143 -0.124053 0.702336 0 255 0
-0.0248335 -0.237147 0.926884 0 255 0
0.0264025 -0.24672 0.925996 0 255 0
-0.1202 -0.16054 0.896481 0 255 0
-0.223625 -0.157288 0.901959 0 255 0
-0.171204 -0.245862 0.871438 0 255 0
-0.0847576 -0.195623 0.982218 0 255 0
-0.109671 -0.169069 0.993694 0 255 0
-0.0926488 -0.229777 0.8898 0 255 0
-0.0633466 -0.209487 0.907579 0 255 0
-0.0501719 -0.233478 0.917669 0 255 0
-0.144127 -0.159816 0.987293 0 255 0
0.0121053 -0.166241 0.580441 0 255 0
-0.0953457 -0.225608 0.928269 0 255 0
-0.0624637 -0.220001 0.966284 0 255 0
-0.146341 -0.184107 0.977316 0 255 0
-0.117326 -0.257392 0.884281 0 255 0
-0.148269 -0.182799 0.941277 0 255 0
0.18181 -0.218309 0.521524 0 255 0
-0.151599 -0.172624 0.905475 0 255 0
-0.0899973 -0.258422 0.919557 0 255 0
-0.074365 -0.234791 0.880604 0 255 0
-0.156779 -0.223814 0.222165 0 255 0
-0.241451 -0.211161 0.0854247 0 255 0
-0.0199796 -0.187365 0.704508 0 255 0
-0.0314042 -0.153082 0.742857 0 255 0
-0.0655792 -0.208129 0.86458 0 255 0
0.0700783 -0.181153 0.724308 0 255 0
-0.129963 -0.00152883 0.586925 0 255 0
-0.20776 -0.137688 0.578043 0 255 0
-0.16666 -0.265609 0.851989 0 255 0
-0.0502323 -0.119411 0.574301 0 255 0
-0.104445 -0.0352592 0.738502 0 255 0
-0.0835921 -0.258478 0.886605 0 255 0
-0.139264 -0.266345 0.871275 0 255 0
-0.205224 -0.188106 0.515714 0 255 0
-0.145071 -0.0478879 0.738889 0 255 0
-0.105204 0.00716242 0.667779 0 255 0
0.505181 -0.153599 0.0875076 0 255 0
0.101389 -0.207264 0.731835 0 255 0
-0.171776 -0.157973 0.489296 0 255 0
-0.0978403 -0.0344664 0.689452 0 255 0
-0.118725 -0.1419 0.566922 0 255 0
0.455084 -0.153061 0.142092 0 255 0
0.51478 -0.152866 0.0659442 0 255 0
0.118559 -0.287644 0.617805 0 255 0
0.143415 -0.289067 0.622301 0 255 0
0.16283 -0.281024 0.700544 0 255 0
-0.266198 -0.165547 0.583291 0 255 0
-0.032604 -0.287832 0.604397 0 255 0
-0.183459 -0.274351 0.594736 0 255 0
-0.236614 -0.256562 0.624493 0 255 0
-0.255809 -0.229667 0.681234 0 255 0
-0.218383 -0.27349 0.63164 0 255 0
-0.231772 -0.261458 0.673463 0 255 0
-0.186858 -0.288291 0.672204 0 255 0
-0.170655 -0.194599 0.21766 0 255 0
0.449948 -0.181499 0.144532 0 255 0
0.481139 -0.202659 0.119493 0 255 0
0.118998 -0.155083 0.266029 0 255 0
-0.0420221 -0.323743 0.0711578 0 255 0
0.482035 -0.272118 0.116089 0 255 0
0.349671 -0.354624 0.0713053 0 255 0
0.0863976 -0.254526 0.0669127 0 255 0
0.00442598 -0.470301 0.0755453 0 255 0
-0.532056 -0.436289 0.134325 0 255 0
-0.560827 -0.419978 0.103066 0 255 0
0.3249 -0.480204 0.0754736 0 255 0
0.338249 -0.451365 0.076412 0 255 0
-0.571331 -0.448733 0.0874263 0 255 0
0.350419 -0.411379 0.0695871 0 255 0
0.297025 -0.565352 0.0967774 0 255 0
-0.574284 -0.523298 0.0795771 0 255 0
-0.564992 -0.542311 0.0966394 0 255 0
-0.412579 -0.707084 0.124357 0 255 0
-0.402192 -0.735172 0.0914797 0 255 0
-0.566237 -0.593156 0.0920558 0 255 0
-0.391728 -0.719548 0.113273 0 255 0
-0.070052 0.495259 0.139895 0 255 0
0.028826 0.488536 0.141969 0 255 0
0.205552 0.214367 0.113042 0 255 0
0.0449021 -0.153989 0.353823 0 255 0
-0.0704596 0.22655 0.0719326 0 255 0
0.178445 0.159904 0.0724379 0 255 0
0.187481 0.121703 0.0753957 0 255 0
0.214022 0.13966 0.0813543 0 255 0
0.226901 0.195406 0.0935221 0 255 0
-0.136969 0.308076 0.077997 0 255 0
-0.353912 0.341574 0.069285 0 255 0
-0.250038 0.248453 0.210053 0 255 0
0.214527 0.196541 0.0760919 0 255 0
-0.0747176 0.119898 0.0741847 0 255 0
0.189734 0.192054 0.0706048 0 255 0
0.129607 0.160765 0.135193 0 255 0
0.242731 0.261814 0.0967583 0 255 0
-0.339993 0.258947 0.0836824 0 255 0
-0.00617969 0.116768 0.0778587 0 255 0
-0.373804 0.106158 0.069871 0 255 0
0.370126 0.0945629 0.0980083 0 255 0
0.337698 0.0704587 0.107424 0 255 0
0.314955 0.0663775 0.121697 0 255 0
-0.194864 0.145159 0.0781804 0 255 0
0.481369 0.11726 0.118522 0 255 0
0.465715 0.139326 0.131465 0 255 0
-0.00649899 0.271838 0.638476 0 255 0
-0.36633 0.215393 0.0795665 0 255 0
-0.0435437 0.274547 0.672756 0 255 0
0.284259 0.116393 0.676643 0 255 0
-0.116032 0.269701 0.650939 0 255 0
-0.0789842 0.168074 0.577032 0 255 0
-0.317301 0.246129 0.0840913 0 255 0
0.15478 0.142451 0.647497 0 255 0
-0.146916 0.159921 0.762383 0 255 0
0.511025 0.110908 0.076351 0 255 0
-0.171914 0.248232 0.599697 0 255 0
0.283989 0.116829 0.633591 0 255 0
-0.131607 0.0217319 0.771239 0 255 0
-0.305282 -0.0392736 0.0825446 0 255 0
-0.136344 0.119878 0.774364 0 255 0
-0.0575491 0.143495 0.541992 0 255 0
-0.0914922 -0.00948724 0.705998 0 255 0
0.143381 0.11118 0.767143 0 255 0
-0.11217 0.120995 0.546 0 255 0
0.15088 0.234377 0.527087 0 255 0
0.188932 0.137065 0.428872 0 255 0
-0.135641 0.122753 0.740684 0 255 0
0.21921 0.193657 0.504142 0 255 0
0.241946 0.158109 0.492291 0 255 0
0.153918 0.231166 0.474854 0 255 0
0.189869 0.172508 0.448713 0 255 0
-0.0861966 -0.00614244 0.891297 0 255 0
-0.0187651 0.119732 0.921722 0 255 0
-0.162999 0.215623 0.490913 0 255 0
-0.113319 0.172337 0.420655 0 255 0
-0.168922 0.0771621 0.891009 0 255 0
-0.114544 0.188574 0.432535 0 255 0
-0.145204 0.182605 0.821431 0 255 0
-0.143704 0.181968 0.434108 0 255 0
-0.118627 0.163042 0.897999 0 255 0
-0.220827 0.170034 0.502498 0 255 0
-0.177537 0.218962 0.465801 0 255 0
-0.211307 0.190724 0.454579 0 255 0
-0.141405 0.216376 0.473775 0 255 0
-0.189953 0.126397 0.429633 0 255 0
-0.0808667 0.127963 0.914007 0 255 0
-0.151617 0.108392 0.872303 0 255 0
-0.108699 0.0997496 0.912989 0 255 0
0.0517028 0.110912 0.677939 0 255 0
-0.155025 0.149083 0.911551 0 255 0
-0.1487 0.214041 0.864328 0 255 0
0.109206 0.118739 0.845453 0 255 0
-0.181267 0.0976618 0.4186 0 255 0
-0.263806 0.217975 0.0742145 0 255 0
0.498309 0.0829677 0.0999498 0 255 0
0.504164 0.0639555 0.0933525 0 255 0
-0.531988 0.0776646 0.13801 0 255 0
-0.441191 0.130117 0.077337 0 255 0
-0.450696 0.0572807 0.112795 0 255 0
-0.201547 0.117478 0.461242 0 255 0
-0.187374 0.049925 0.420047 0 255 0
-0.530102 0.023804 0.140033 0 255 0
-0.058854 0.15121 0.699287 0 255 0
-0.105627 0.140834 0.554437 0 255 0
-0.124345 0.155064 0.571661 0 255 0
-0.043486 0.157183 0.632164 0 255 0
0.0221893 0.0809649 0.666754 0 255 0
-0.547239 0.0166779 0.122144 0 255 0
0.247768 0.0311835 0.361762 0 255 0
0.210201 -0.108299 0.445121 0 255 0
0.236852 -0.0722996 0.374701 0 255 0
0.220862 -0.0462876 0.304482 0 255 0
0.237776 0.0253979 0.339272 0 255 0
0.212309 0.0361692 0.297375 0 255 0
0.227556 0.079045 0.414081 0 255 0
0.191009 0.0823596 0.471096 0 255 0
0.18689 0.114013 0.40416 0 255 0
-0.561798 -0.0249797 0.104941 0 255 0
0.150331 0.0318436 0.628009 0 255 0
0.139925 0.0119579 0.08871 0 255 0
-0.416711 0.0168369 0.0847468 0 255 0
-0.516051 -0.0921963 0.149678 0 255 0
-0.57993 -0.0691507 0.068657 0 255 0
-0.430884 -0.0837917 0.098595 0 255 0
0.137632 -0.030608 0.777896 0 255 0
0.214219 -0.164078 0.539965 0 255 0
-0.314119 -0.22501 0.080709 0 255 0
-0.233791 0.027326 0.0796611 0 255 0
-0.442032 -0.0947612 0.132535 0 255 0
-0.20308 -0.117999 0.895228 0 255 0
-0.203656 -0.137995 0.889937 0 255 0
0.13028 -0.125765 0.235572 0 255 0
0.0191935 -0.13126 0.363563 0 255 0
0.0421956 -0.142853 0.61543 0 255 0
0.231839 -0.162331 0.475007 0 255 0
0.126311 -0.100027 0.265704 0 255 0
0.016653 -0.195048 0.332275 0 255 0
-0.0113183 -0.146508 0.360049 0 255 0
0.131648 -0.100243 0.210725 0 255 0
-0.203032 -0.176275 0.743953 0 255 0
0.153131 -0.212347 0.481797 0 255 0
0.201106 -0.109443 0.426235 0 255 0
-0.0615506 -0.130562 0.35451 0 255 0
0.0962451 -0.129143 0.331216 0 255 0
0.207032 -0.147055 0.487736 0 255 0
0.17349 -0.215756 0.458702 0 255 0
0.149457 -0.160733 0.409204 0 255 0
-0.0173681 -0.233024 0.306832 0 255 0
0.0384319 -0.211641 0.321389 0 255 0
0.0123992 -0.233827 0.304805 0 255 0
-0.502388 -0.125179 0.157773 0 255 0
0.176913 -0.161261 0.420737 0 255 0
0.115052 -0.147999 0.468857 0 255 0
-0.211173 -0.168408 0.870312 0 255 0
0.145237 -0.233256 0.461845 0 255 0
0.13318 -0.101336 0.231852 0 255 0
0.25922 -0.17542 0.293737 0 255 0
0.259068 -0.176904 0.226982 0 255 0
-0.0717157 -0.242127 0.621673 0 255 0
0.23462 -0.214098 0.256558 0 255 0
0.22905 -0.222529 0.218197 0 255 0
-0.178293 -0.240582 0.432412 0 255 0
-0.0631783 -0.128993 0.734629 0 255 0
-0.220123 -0.195157 0.424047 0 255 0
0.125643 -0.245357 0.0723828 0 255 0
0.237228 -0.211242 0.28665 0 255 0
-0.238907 -0.16481 0.493998 0 255 0
0.016785 -0.218881 0.347223 0 255 0
0.256614 -0.179083 0.268906 0 255 0
0.237755 -0.208274 0.327911 0 255 0
0.144036 -0.225541 0.0739141 0 255 0
0.195409 -0.246668 0.306092 0 255 0
0.168657 -0.159571 0.242831 0 255 0
0.244329 -0.198438 0.385896 0 255 0
0.256051 -0.184292 0.353703 0 255 0
0.220801 -0.230676 0.372042 0 255 0
0.217809 -0.231375 0.341813 0 255 0
0.192799 -0.249089 0.355303 0 255 0
0.15275 -0.140666 0.274953 0 255 0
0.147947 -0.144173 0.335348 0 255 0
-0.00281789 -0.148805 0.768398 0 255 0
0.0390195 -0.173464 0.747004 0 255 0
0.133402 -0.0491161 0.72818 0 255 0
-0.233117 -0.200129 0.227648 0 255 0
-0.136677 -0.0468048 0.712263 0 255 0
-0.160709 -0.15242 0.206149 0 255 0
0.164578 -0.161644 0.730794 0 255 0
0.210965 -0.217657 0.539491 0 255 0
0.288488 -0.146656 0.634712 0 255 0
0.21133 -0.0321418 0.0839337 0 255 0
0.0141851 -0.154137 0.728923 0 255 0
0.0387214 -0.114962 0.754195 0 255 0
-0.182335 -0.142839 0.215587 0 255 0
0.180211 -0.024554 0.730644 0 255 0
0.158029 -0.274717 0.583484 0 255 0
0.266975 -0.227288 0.646331 0 255 0
0.266514 -0.222251 0.61582 0 255 0
0.254879 -0.206671 0.728403 0 255 0
0.237999 -0.260023 0.647014 0 255 0
0.251065 -0.233702 0.703526 0 255 0
0.000849371 -0.132978 0.15369 0 255 0
-0.379907 -0.266683 0.116619 0 255 0
-0.145548 -0.164524 0.239256 0 255 0
-0.504979 -0.193578 0.158373 0 255 0
-0.563397 -0.186604 0.105875 0 255 0
-0.127681 -0.247613 0.247908 0 255 0
-0.340611 -0.327926 0.101338 0 255 0
-0.341029 -0.280344 0.113427 0 255 0
0.22528 -0.0998373 0.0755715 0 255 0
-0.56989 -0.264245 0.090962 0 255 0
-0.551643 -0.265695 0.118007 0 255 0
-0.379937 -0.355881 0.136664 0 255 0
-0.413245 -0.31571 0.112847 0 255 0
-0.514106 -0.288869 0.149481 0 255 0
-0.0688992 -0.230131 0.0711965 0 255 0
-0.522629 -0.315788 0.144851 0 255 0
-0.580885 -0.308985 0.0671523 0 255 0
-0.550835 -0.316423 0.119876 0 255 0
-0.523579 -0.374383 0.142866 0 255 0
-0.0974728 -0.533787 0.0686244 0 255 0
-0.00485655 -0.556521 0.113729 0 255 0
-0.0409934 -0.503949 0.0701165 0 255 0
0.0647801 -0.463562 0.0758397 0 255 0
0.0921292 -0.353014 0.0664759 0 255 0
0.124193 -0.472442 0.0772581 0 255 0
0.254623 -0.512884 0.0987837 0 255 0
0.242049 -0.53644 0.118148 0 255 0
-0.0545564 -0.620425 0.100286 0 255 0
-0.0862112 -0.58193 0.0860517 0 255 0
0.0291565 -0.618647 0.0967604 0 255 0
-0.255755 -0.539245 0.0910811 0 255 0
0.029832 -0.592392 0.101939 0 255 0
-0.0482033 -0.680258 0.0907486 0 255 0
0.109765 -0.510764 0.073466 0 255 0
0.0342323 -0.615266 0.0713256 0 255 0
0.0164398 -0.697316 0.0762633 0 255 0
-0.0117517 -0.701356 0.0880404 0 255 0
-0.0136675 -0.697904 0.117964 0 255 0
0.0146527 -0.715046 0.106254 0 255 0
-0.00977788 -0.627864 0.19377 0 255 0
-0.062611 -0.725654 0.108472 0 255 0
-0.0942599 -0.745045 0.0840834 0 255 0
0.165945 -0.749342 0.0740026 0 255 0
0.037089 -0.746385 0.0781086 0 255 0
0.124299 -0.711924 0.10382 0 255 0
0.188818 -0.732379 0.105731 0 255 0
0.0979938 -0.752462 0.0666936 0 255 0
0.178087 -0.420043 0.0806622 0 255 0
0.132812 -0.543387 0.225891 0 255 0
0.0343797 -0.513404 0.21078 0 255 0
0.174476 -0.596469 0.206785 0 255 0
0.0650108 -0.54228 0.225811 0 255 0
0.270696 -0.55572 0.0796934 0 255 0
0.130758 -0.580113 0.223988 0 255 0
0.118787 -0.561149 0.226571 0 255 0
0.164855 -0.531093 0.21444 0 255 0
0.240653 -0.466426 0.0710571 0 255 0
0.182202 -0.695699 0.114737 0 255 0
0.0820717 -0.6873 0.158656 0 255 0
0.0726385 -0.71294 0.0987026 0 255 0
0.165877 -0.703315 0.0655833 0 255 0
-0.280477 0.534179 0.0666064 0 255 0
0.253313 0.501908 0.0914333 0 255 0
-0.294749 0.517667 0.106567 0 255 0
-0.287257 0.501976 0.127209 0 255 0
-0.242624 0.471191 0.152501 0 255 0
0.466925 0.470805 0.08051 0 255 0
-0.221933 0.531196 0.073205 0 255 0
-0.219343 0.518617 0.101151 0 255 0
-0.387213 0.517316 0.106624 0 255 0
-0.507443 0.476911 0.120492 0 255 0
-0.536098 0.46248 0.105939 0 255 0
0.413024 0.411193 0.140343 0 255 0
0.329433 0.493949 0.101434 0 255 0
-0.500319 0.264796 0.132417 0 255 0
-0.424447 0.435821 0.129484 0 255 0
0.299784 0.436845 0.0829888 0 255 0
0.246104 0.413606 0.108392 0 255 0
0.267223 0.439684 0.0820669 0 255 0
0.333732 0.392967 0.113083 0 255 0
0.20324 0.420216 0.0803072 0 255 0
-0.542963 0.302567 0.126914 0 255 0
-0.576575 0.32931 0.068883 0 255 0
-0.294957 0.421054 0.121623 0 255 0
-0.27384 0.431094 0.109065 0 255 0
0.470352 0.302703 0.112059 0 255 0
-0.399261 0.393028 0.0965349 0 255 0
-0.548491 0.273023 0.11835 0 255 0
-0.311586 0.415471 0.111142 0 255 0
-0.307642 0.395289 0.0946077 0 255 0
-0.0635856 0.400632 0.078344 0 255 0
0.301876 0.279417 0.0913847 0 255 0
0.430607 0.218448 0.107932 0 255 0
0.489503 0.243674 0.087017 0 255 0
0.100193 0.352115 0.0738946 0 255 0
0.45041 0.221082 0.0875734 0 255 0
0.153523 0.249879 0.205257 0 255 0
0.00928582 0.189198 0.0678611 0 255 0
0.355559 0.317762 0.0786257 0 255 0
0.0961903 0.242694 0.0741321 0 255 0
0.30838 0.251534 0.0732984 0 255 0
-0.429762 0.288932 0.121109 0 255 0
-0.436137 0.169509 0.11983 0 255 0
0.0602946 0.243098 0.0722713 0 255 0
0.0436243 0.21157 0.0718886 0 255 0
-0.450409 0.292095 0.110662 0 255 0
-0.387524 0.367821 0.0689886 0 255 0
-0.354887 0.364761 0.0912098 0 255 0
0.499603 0.209559 0.0752699 0 255 0
0.486966 0.208547 0.0953508 0 255 0
-0.443887 0.14706 0.127595 0 255 0
0.470628 0.212034 0.115088 0 255 0
-0.521696 0.157072 0.143173 0 255 0
-0.557312 0.168329 0.112191 0 255 0
0.470373 0.192314 0.120435 0 255 0
-0.547904 0.107428 0.123719 0 255 0
0.206679 0.223322 0.55909 0 255 0
-0.215205 0.24165 0.60146 0 255 0
-0.234397 0.232063 0.617536 0 255 0
-0.238778 0.232141 0.645565 0 255 0
-0.230254 0.201485 0.738417 0 255 0
-0.181085 0.206336 0.529152 0 255 0
-0.162964 0.262587 0.631918 0 255 0
-0.108121 0.264699 0.688485 0 255 0
0.124721 0.0712756 0.778032 0 255 0
0.146104 0.0302422 0.755307 0 255 0
0.147893 0.12262 0.593611 0 255 0
0.0121943 0.104925 0.692497 0 255 0
0.168013 0.153443 0.488592 0 255 0
-0.181289 0.145321 0.765508 0 255 0
-0.104431 0.0385407 0.783929 0 255 0
0.033884 0.121034 0.747889 0 255 0
-0.184681 0.160807 0.506731 0 255 0
0.154179 0.0109724 0.740835 0 255 0
0.13216 0.18941 0.493105 0 255 0
0.106029 -0.0342604 0.700147 0 255 0
0.121403 0.174291 0.483382 0 255 0
0.0227358 0.0834053 0.73515 0 255 0
-0.0559256 0.126922 0.690601 0 255 0
-0.235849 0.183531 0.229139 0 255 0
-0.251954 0.154932 0.310408 0 255 0
-0.0239266 0.166603 0.622366 0 255 0
-0.236061 0.184519 0.329196 0 255 0
0.201783 0.0731713 0.568483 0 255 0
-0.115957 0.148569 0.95452 0 255 0
0.13921 0.17942 0.75619 0 255 0
0.0950408 0.147866 0.838574 0 255 0
0.110658 0.183595 0.757535 0 255 0
-0.149658 0.238554 0.847902 0 255 0
-0.133823 0.137554 0.473816 0 255 0
-0.256899 0.148696 0.817702 0 255 0
0.186942 0.0145602 0.714202 0 255 0
-0.114466 -0.0268995 0.698813 0 255 0
0.285286 0.0876837 0.677391 0 255 0
-0.135614 0.00308348 0.730145 0 255 0
-0.206728 0.125596 0.483797 0 255 0
-0.132539 0.177849 0.713594 0 255 0
-0.0583545 0.12615 0.477467 0 255 0
-0.0476198 0.122696 0.927078 0 255 0
-0.235321 0.144718 0.422435 0 255 0
0.145504 0.177688 0.8583 0 255 0
-0.179958 0.217436 0.845082 0 255 0
-0.0724522 0.172132 0.94375 0 255 0
-0.0819037 0.131944 0.47319 0 255 0
-0.143199 0.144973 0.946747 0 255 0
0.00257985 0.145563 0.922429 0 255 0
-0.061538 0.101974 0.926115 0 255 0
-0.101655 0.222962 0.889945 0 255 0
-0.208046 0.11525 0.947024 0 255 0
0.0667342 0.109375 0.904532 0 255 0
-0.0946972 0.228552 0.914533 0 255 0
-0.0999954 0.0153675 0.889557 0 255 0
-0.203699 0.149707 0.712143 0 255 0
-0.134594 0.225487 0.911505 0 255 0
-0.113893 0.217741 0.93278 0 255 0
-0.11054 0.1923 0.925786 0 255 0
-0.166837 0.141701 0.946111 0 255 0
-0.220865 0.194232 0.79326 0 255 0
-0.245282 0.106332 0.900012 0 255 0
-0.191996 0.148741 0.888088 0 255 0
-0.227983 0.144133 0.85996 0 255 0
-0.205005 0.185962 0.890416 0 255 0
0.139497 0.165198 0.775954 0 255 0
-0.161846 0.0816331 0.990679 0 255 0
-0.170318 0.119033 0.750598 0 255 0
-0.189464 -0.0405206 0.707853 0 255 0
-0.149068 -0.0704545 0.868342 0 255 0
0.156684 0.162532 0.705302 0 255 0
0.134397 0.146326 0.741793 0 255 0
0.0247754 0.100203 0.750506 0 255 0
0.123054 0.146284 0.555674 0 255 0
0.0969144 0.170513 0.597657 0 255 0
0.192245 0.0604834 0.944419 0 255 0
0.172755 -0.0790197 0.718377 0 255 0
0.22062 -0.0686811 0.608229 0 255 0
0.177778 -0.00405353 0.981835 0 255 0
0.026142 0.101381 0.571973 0 255 0
0.219993 0.100694 0.813807 0 255 0
0.203353 0.103483 0.850707 0 255 0
0.078086 0.116313 0.878042 0 255 0
0.136997 -0.104342 0.889804 0 255 0
0.110035 0.0989491 0.552038 0 255 0
0.288957 -0.0532607 0.650733 0 255 0
0.19449 -0.0391328 0.974259 0 255 0
-0.143766 -0.161173 0.599249 0 255 0
0.196924 -0.0130993 0.973393 0 255 0
-0.224675 -0.037879 0.937276 0 255 0
0.207672 -0.063742 0.891961 0 255 0
0.208982 0.0632616 0.615255 0 255 0
0.213868 0.0825195 0.628942 0 255 0
0.0573066 0.103035 0.851865 0 255 0
0.134056 -0.19133 0.69843 0 255 0
0.036884 -0.165766 0.703803 0 255 0
-0.199707 0.0764441 0.609148 0 255 0
0.140467 -0.161162 0.742064 0 255 0
-0.276379 -0.0504911 0.6855 0 255 0
-0.215995 -0.0579394 0.949641 0 255 0
-0.00273358 -0.135334 0.566577 0 255 0
-0.277135 -0.118867 0.669275 0 255 0
0.0403978 -0.168406 0.572138 0 255 0
-0.201295 -0.0917704 0.926313 0 255 0
0.287385 -0.0862455 0.622038 0 255 0
0.115141 0.0463863 0.880863 0 255 0
0.206392 0.0450432 0.873303 0 255 0
0.221241 -0.10818 0.886409 0 255 0
0.286159 -0.0855774 0.690891 0 255 0
-0.276843 -0.107165 0.599739 0 255 0
-0.245651 -0.191644 0.677318 0 255 0
0.205794 -0.119852 0.938448 0 255 0
-0.0883719 0.0298387 0.932754 0 255 0
0.16592 -0.122797 0.923319 0 255 0
0.212107 -0.135416 0.892341 0 255 0
0.135305 -0.162333 0.921027 0 255 0
0.137535 -0.152187 0.991544 0 255 0
0.19648 -0.189464 0.907982 0 255 0
0.11843 -0.188265 0.305584 0 255 0
-0.120291 -0.127876 0.268016 0 255 0
0.154924 -0.196429 0.936201 0 255 0
0.159557 -0.133826 0.990794 0 255 0
0.0961405 -0.169839 0.328849 0 255 0
0.00957834 -0.122923 0.327095 0 255 0
-0.0661763 -0.18715 0.317553 0 255 0
-0.0375903 -0.163574 0.342756 0 255 0
-0.107045 -0.138676 0.303193 0 255 0
0.1911 -0.158053 0.933188 0 255 0
0.00624235 -0.165933 0.31749 0 255 0
-0.0590786 -0.156837 0.338594 0 255 0
0.126118 -0.0722358 0.220982 0 255 0
-0.0457111 -0.169397 0.313253 0 255 0
-0.0709389 -0.139175 0.336694 0 255 0
-0.0632961 -0.13754 0.279016 0 255 0
0.156805 -0.110151 0.994846 0 255 0
0.173045 -0.0229041 0.88824 0 255 0
0.254999 -0.119377 0.887819 0 255 0
-0.213504 -0.0217389 0.413321 0 255 0
0.150541 -0.19548 0.775622 0 255 0
-0.182942 -0.216639 0.5018 0 255 0
0.173978 -0.180119 0.941072 0 255 0
0.0382355 -0.192617 0.622054 0 255 0
0.25009 -0.135588 0.899545 0 255 0
-0.0373854 -0.240094 0.294498 0 255 0
0.1564 -0.206735 0.733457 0 255 0
0.178737 -0.203304 0.880106 0 255 0
0.131555 -0.21105 0.929791 0 255 0
0.166912 -0.230269 0.911414 0 255 0
0.0870906 -0.159517 0.923991 0 255 0
-0.0421486 -0.174655 0.875332 0 255 0
-0.115774 -0.220463 0.434755 0 255 0
0.2348 -0.151017 0.87192 0 255 0
-0.0175505 -0.165581 0.902644 0 255 0
0.134167 -0.189636 0.896121 0 255 0
0.132981 -0.259688 0.886276 0 255 0
-0.00370952 -0.222617 0.827138 0 255 0
-0.0685292 -0.195392 0.417848 0 255 0
0.179164 -0.135153 0.953877 0 255 0
0.0956449 -0.214643 0.898487 0 255 0
0.208722 -0.168576 0.717726 0 255 0
-0.0236184 -0.20089 0.87516 0 255 0
0.20135 -0.14393 0.209571 0 255 0
-0.123073 -0.176626 0.754932 0 255 0
0.162365 -0.140381 0.663931 0 255 0
-0.24003 -0.183968 0.240901 0 255 0
-0.15155 -0.267243 0.285237 0 255 0
-0.212241 -0.231073 0.283805 0 255 0
-0.0760807 -0.152537 0.468811 0 255 0
0.137822 -0.227157 0.882093 0 255 0
-0.207447 -0.235765 0.344911 0 255 0
-0.0298016 -0.188528 0.731669 0 255 0
-0.151303 -0.10438 0.471889 0 255 0
0.148717 -0.0414314 0.707467 0 255 0
-0.13815 -0.113943 0.762419 0 255 0
-0.145976 -0.0846204 0.474647 0 255 0
0.173447 -0.174615 0.711256 0 255 0
-0.0681563 -0.154998 0.241789 0 255 0
0.160934 -0.0521429 0.56327 0 255 0
-0.27972 -0.15499 0.654061 0 255 0
0.185083 -0.128404 0.575065 0 255 0
0.108372 -0.230885 0.925897 0 255 0
0.232566 -0.0982257 0.639154 0 255 0
0.17633 -0.134479 0.71908 0 255 0
-0.0259435 -0.121289 0.76812 0 255 0
-0.145895 -0.191814 0.25066 0 255 0
0.116783 -0.190338 0.282177 0 255 0
-0.267929 -0.191495 0.683744 0 255 0
0.140949 -0.283319 0.700974 0 255 0
0.0725679 -0.287206 0.701343 0 255 0
0.0552593 -0.291069 0.618724 0 255 0
0.0249947 -0.288685 0.699502 0 255 0
-0.16647 -0.174533 0.790218 0 255 0
-0.137054 -0.284608 0.719392 0 255 0
-0.269187 -0.169191 0.70951 0 255 0
-0.0358711 -0.166591 0.25942 0 255 0
0.324181 -0.127184 0.0717584 0 255 0
0.191543 -0.183558 0.211899 0 255 0
0.31446 -0.133888 0.101087 0 255 0
0.351335 -0.223114 0.0711776 0 255 0
0.302298 -0.27525 0.0713505 0 255 0
0.242942 -0.331057 0.0747555 0 255 0
0.162869 -0.284802 0.222151 0 255 0
0.131493 -0.244738 0.254775 0 255 0
0.334324 -0.29233 0.0672878 0 255 0
0.310217 -0.15169 0.0746086 0 255 0
0.294502 -0.237057 0.0731532 0 255 0
0.174596 -0.152381 0.0811262 0 255 0
0.159977 -0.163992 0.108419 0 255 0
0.132425 -0.158695 0.0750053 0 255 0
0.145087 -0.152255 0.0959856 0 255 0
0.151493 -0.431702 0.102364 0 255 0
0.130668 -0.368711 0.200372 0 255 0
-0.200106 -0.420095 0.105854 0 255 0
0.0671625 -0.188288 0.0735805 0 255 0
0.105671 -0.461538 0.0658697 0 255 0
-0.0941542 -0.446836 0.106052 0 255 0
0.0150373 -0.437706 0.0739382 0 255 0
0.0725966 -0.239322 0.0765002 0 255 0
0.463459 -0.359118 0.127432 0 255 0
-0.0994954 -0.503783 0.068482 0 255 0
-0.21631 -0.46351 0.068838 0 255 0
0.489056 -0.367871 0.103864 0 255 0
-0.159188 -0.525477 0.0714581 0 255 0
-0.124841 -0.524948 0.0723612 0 255 0
-0.180011 -0.521134 0.0728843 0 255 0
-0.215555 -0.492184 0.10098 0 255 0
0.483018 -0.392942 0.110707 0 255 0
0.509096 -0.395122 0.0714868 0 255 0
-0.150828 -0.550139 0.0921822 0 255 0
0.467056 -0.438133 0.124477 0 255 0
-0.110342 -0.554452 0.0987122 0 255 0
-0.153652 -0.535274 0.11254 0 255 0
-0.235911 -0.531002 0.131852 0 255 0
0.48903 -0.449782 0.098451 0 255 0
-0.331679 -0.415932 0.138623 0 255 0
-0.216551 -0.510333 0.117835 0 255 0
0.491485 -0.490652 0.0959135 0 255 0
-0.267685 -0.455262 0.0968714 0 255 0
-0.2568 -0.474543 0.11922 0 255 0
0.472334 -0.5683 0.114894 0 255 0
-0.157697 -0.484593 0.0653968 0 255 0
-0.0620958 -0.652754 0.187642 0 255 0
-0.219323 -0.711333 0.124669 0 255 0
-0.31002 -0.587788 0.0799818 0 255 0
-0.18531 -0.736114 0.0900607 0 255 0
0.410372 -0.737027 0.0716334 0 255 0
-0.23242 -0.68925 0.143767 0 255 0
-0.319143 -0.720818 0.114666 0 255 0
0.301676 -0.747673 0.0679645 0 255 0
0.281845 -0.740674 0.0843963 0 255 0
-0.539619 0.184168 0.131267 0 255 0
0.355233 -0.713683 0.111465 0 255 0
-0.15362 -0.716191 0.123564 0 255 0
-0.253067 -0.700856 0.130398 0 255 0
0.501346 -0.547616 0.0792955 0 255 0
0.428883 0.444009 0.124908 0 255 0
-0.30948 0.477366 0.15093 0 255 0
-0.234806 0.498549 0.130351 0 255 0
