ply
format ascii 1.0
comment Created by Open3D
element vertex 145
property double x
property double y
property double z
property uchar red
property uchar green
property uchar blue
end_header
0.0803338 0.514203 0.105193 0 255 0
-0.201105 0.507072 0.118577 0 255 0
0.0295215 0.533212 0.0669921 0 255 0
-0.0829011 0.534837 0.0673693 0 255 0
-0.115137 0.526967 0.0913361 0 255 0
0.143739 0.527406 0.0677397 0 255 0
0.137826 0.159214 0.0682703 0 255 0
0.231766 0.247463 0.665049 0 255 0
0.261788 0.213546 0.6385 0 255 0
0.181365 0.263718 0.0718833 0 255 0
0.180593 0.195052 0.919593 0 255 0
-0.22733 0.0464591 0.295224 0 255 0
0.232111 0.174533 0.407107 0 255 0
0.203817 0.207135 0.460315 0 255 0
0.145579 0.170876 0.977298 0 255 0
0.178359 -0.0816204 0.863721 0 255 0
0.133437 -0.110455 0.865754 0 255 0
0.500073 0.0620639 0.0989957 0 255 0
0.473195 0.0438024 0.131109 0 255 0
0.328143 -0.0920201 0.106642 0 255 0
0.478207 -0.00126509 0.127855 0 255 0
0.383252 -0.0352326 0.106003 0 255 0
0.341008 0.125849 0.0752059 0 255 0
0.51264 0.0270855 0.0679395 0 255 0
-0.147136 0.0656597 0.86976 0 255 0
-0.150865 0.0282259 0.880646 0 255 0
-0.169447 -0.14643 0.720131 0 255 0
-0.201496 -0.195738 0.889583 0 255 0
0.22631 -0.174147 0.212173 0 255 0
-0.130613 -0.0570367 0.841802 0 255 0
-0.0935308 -0.107917 0.919572 0 255 0
-0.143473 -0.136965 0.842105 0 255 0
-0.148269 -0.182799 0.941277 0 255 0
-0.0314042 -0.153082 0.742857 0 255 0
-0.227499 -0.265026 0.628066 0 255 0
-0.255809 -0.229667 0.681234 0 255 0
-0.231772 -0.261458 0.673463 0 255 0
-0.186858 -0.288291 0.672204 0 255 0
0.481139 -0.202659 0.119493 0 255 0
-0.560827 -0.419978 0.103066 0 255 0
-0.571331 -0.448733 0.0874263 0 255 0
-0.569638 -0.532805 0.0881083 0 255 0
-0.566237 -0.593156 0.0920558 0 255 0
-0.00714409 -0.146601 0.354421 0 255 0
0.511025 0.110908 0.076351 0 255 0
0.188251 0.129381 0.420635 0 255 0
0.241946 0.158109 0.492291 0 255 0
0.189869 0.172508 0.448713 0 255 0
-0.123856 0.18096 0.429099 0 255 0
-0.145204 0.182605 0.821431 0 255 0
-0.211307 0.190724 0.454579 0 255 0
-0.189953 0.126397 0.429633 0 255 0
-0.151617 0.108392 0.872303 0 255 0
0.109206 0.118739 0.845453 0 255 0
-0.531988 0.0776646 0.13801 0 255 0
-0.441191 0.130117 0.077337 0 255 0
-0.450696 0.0572807 0.112795 0 255 0
-0.53867 0.020241 0.131089 0 255 0
0.220862 -0.0462876 0.304482 0 255 0
0.212309 0.0361692 0.297375 0 255 0
-0.561798 -0.0249797 0.104941 0 255 0
0.139925 0.0119579 0.08871 0 255 0
-0.57993 -0.0691507 0.068657 0 255 0
-0.430884 -0.0837917 0.098595 0 255 0
0.231839 -0.162331 0.475007 0 255 0
0.126311 -0.100027 0.265704 0 255 0
0.0221307 -0.205154 0.333291 0 255 0
0.0962451 -0.129143 0.331216 0 255 0
0.17349 -0.215756 0.458702 0 255 0
0.167761 -0.161085 0.416893 0 255 0
0.115052 -0.147999 0.468857 0 255 0
-0.178293 -0.240582 0.432412 0 255 0
-0.220123 -0.195157 0.424047 0 255 0
0.237755 -0.208274 0.327911 0 255 0
0.244329 -0.198438 0.385896 0 255 0
0.256051 -0.184292 0.353703 0 255 0
0.201635 -0.243068 0.355844 0 255 0
0.147947 -0.144173 0.335348 0 255 0
-0.236573 -0.192049 0.234274 0 255 0
0.266975 -0.227288 0.646331 0 255 0
0.266514 -0.222251 0.61582 0 255 0
0.237999 -0.260023 0.647014 0 255 0
0.251065 -0.233702 0.703526 0 255 0
-0.145779 -0.182717 0.246859 0 255 0
-0.563397 -0.186604 0.105875 0 255 0
-0.580885 -0.308985 0.0671523 0 255 0
-0.111157 -0.529368 0.0704928 0 255 0
-0.0409934 -0.503949 0.0701165 0 255 0
-0.255755 -0.539245 0.0910811 0 255 0
-0.0482033 -0.680258 0.0907486 0 255 0
0.165945 -0.749342 0.0740026 0 255 0
0.188818 -0.732379 0.105731 0 255 0
0.0979938 -0.752462 0.0666936 0 255 0
-0.280477 0.534179 0.0666064 0 255 0
-0.291003 0.509821 0.116888 0 255 0
0.466925 0.470805 0.08051 0 255 0
-0.221933 0.531196 0.073205 0 255 0
-0.387213 0.517316 0.106624 0 255 0
-0.507443 0.476911 0.120492 0 255 0
-0.536098 0.46248 0.105939 0 255 0
0.329433 0.493949 0.101434 0 255 0
-0.424447 0.435821 0.129484 0 255 0
0.267223 0.439684 0.0820669 0 255 0
-0.576575 0.32931 0.068883 0 255 0
-0.387524 0.367821 0.0689886 0 255 0
-0.551414 0.173609 0.118549 0 255 0
-0.547904 0.107428 0.123719 0 255 0
-0.231789 0.234499 0.627531 0 255 0
-0.181085 0.206336 0.529152 0 255 0
-0.162964 0.262587 0.631918 0 255 0
-0.235849 0.183531 0.229139 0 255 0
-0.251954 0.154932 0.310408 0 255 0
-0.236061 0.184519 0.329196 0 255 0
0.0950408 0.147866 0.838574 0 255 0
-0.133823 0.137554 0.473816 0 255 0
-0.235321 0.144718 0.422435 0 255 0
0.145504 0.177688 0.8583 0 255 0
-0.208046 0.11525 0.947024 0 255 0
-0.134594 0.225487 0.911505 0 255 0
-0.205005 0.185962 0.890416 0 255 0
-0.161846 0.0816331 0.990679 0 255 0
-0.149068 -0.0704545 0.868342 0 255 0
0.203353 0.103483 0.850707 0 255 0
-0.143766 -0.161173 0.599249 0 255 0
0.0573066 0.103035 0.851865 0 255 0
0.115141 0.0463863 0.880863 0 255 0
0.19648 -0.189464 0.907982 0 255 0
0.0961405 -0.169839 0.328849 0 255 0
0.166912 -0.230269 0.911414 0 255 0
-0.0421486 -0.174655 0.875332 0 255 0
-0.00370952 -0.222617 0.827138 0 255 0
-0.0685292 -0.195392 0.417848 0 255 0
-0.212241 -0.231073 0.283805 0 255 0
-0.207447 -0.235765 0.344911 0 255 0
0.334324 -0.29233 0.0672878 0 255 0
0.509096 -0.395122 0.0714868 0 255 0
-0.110342 -0.554452 0.0987122 0 255 0
0.490667 -0.477028 0.0967594 0 255 0
-0.331679 -0.415932 0.138623 0 255 0
-0.18531 -0.736114 0.0900607 0 255 0
0.410372 -0.737027 0.0716334 0 255 0
0.295066 -0.74534 0.0734418 0 255 0
-0.15362 -0.716191 0.123564 0 255 0
0.501346 -0.547616 0.0792955 0 255 0
0.428883 0.444009 0.124908 0 255 0
