ply
format ascii 1.0
comment Created by Open3D
element vertex 93
property double x
property double y
property double z
property uchar red
property uchar green
property uchar blue
end_header
0.0803338 0.514203 0.105193 255 0 255
-0.201105 0.507072 0.118577 255 0 255
0.0295215 0.533212 0.0669921 255 0 255
-0.0829011 0.534837 0.0673693 255 0 255
-0.115137 0.526967 0.0913361 255 0 255
0.143739 0.527406 0.0677397 255 0 255
0.231766 0.247463 0.665049 255 0 255
0.261788 0.213546 0.6385 255 0 255
0.180593 0.195052 0.919593 255 0 255
-0.22733 0.0464591 0.295224 255 0 255
0.232111 0.174533 0.407107 255 0 255
0.203817 0.207135 0.460315 255 0 255
0.145579 0.170876 0.977298 255 0 255
0.500073 0.0620639 0.0989957 255 0 255
0.473195 0.0438024 0.131109 255 0 255
0.478207 -0.00126509 0.127855 255 0 255
0.51264 0.0270855 0.0679395 255 0 255
-0.201496 -0.195738 0.889583 255 0 255
0.22631 -0.174147 0.212173 255 0 255
-0.148269 -0.182799 0.941277 255 0 255
-0.227499 -0.265026 0.628066 255 0 255
-0.255809 -0.229667 0.681234 255 0 255
-0.231772 -0.261458 0.673463 255 0 255
-0.186858 -0.288291 0.672204 255 0 255
0.481139 -0.202659 0.119493 255 0 255
-0.560827 -0.419978 0.103066 255 0 255
-0.571331 -0.448733 0.0874263 255 0 255
-0.569638 -0.532805 0.0881083 255 0 255
-0.566237 -0.593156 0.0920558 255 0 255
0.511025 0.110908 0.076351 255 0 255
0.241946 0.158109 0.492291 255 0 255
0.189869 0.172508 0.448713 255 0 255
-0.211307 0.190724 0.454579 255 0 255
-0.531988 0.0776646 0.13801 255 0 255
-0.53867 0.020241 0.131089 255 0 255
0.220862 -0.0462876 0.304482 255 0 255
-0.561798 -0.0249797 0.104941 255 0 255
-0.57993 -0.0691507 0.068657 255 0 255
0.231839 -0.162331 0.475007 255 0 255
0.17349 -0.215756 0.458702 255 0 255
-0.178293 -0.240582 0.432412 255 0 255
-0.220123 -0.195157 0.424047 255 0 255
0.237755 -0.208274 0.327911 255 0 255
0.244329 -0.198438 0.385896 255 0 255
0.256051 -0.184292 0.353703 255 0 255
0.201635 -0.243068 0.355844 255 0 255
-0.236573 -0.192049 0.234274 255 0 255
0.266975 -0.227288 0.646331 255 0 255
0.266514 -0.222251 0.61582 255 0 255
0.237999 -0.260023 0.647014 255 0 255
0.251065 -0.233702 0.703526 255 0 255
-0.563397 -0.186604 0.105875 255 0 255
-0.580885 -0.308985 0.0671523 255 0 255
0.165945 -0.749342 0.0740026 255 0 255
0.188818 -0.732379 0.105731 255 0 255
0.0979938 -0.752462 0.0666936 255 0 255
-0.280477 0.534179 0.0666064 255 0 255
-0.291003 0.509821 0.116888 255 0 255
0.466925 0.470805 0.08051 255 0 255
-0.221933 0.531196 0.073205 255 0 255
-0.387213 0.517316 0.106624 255 0 255
-0.507443 0.476911 0.120492 255 0 255
-0.536098 0.46248 0.105939 255 0 255
0.329433 0.493949 0.101434 255 0 255
-0.424447 0.435821 0.129484 255 0 255
0.267223 0.439684 0.0820669 255 0 255
-0.576575 0.32931 0.068883 255 0 255
-0.551414 0.173609 0.118549 255 0 255
-0.547904 0.107428 0.123719 255 0 255
-0.231789 0.234499 0.627531 255 0 255
-0.181085 0.206336 0.529152 255 0 255
-0.162964 0.262587 0.631918 255 0 255
-0.235849 0.183531 0.229139 255 0 255
-0.251954 0.154932 0.310408 255 0 255
-0.236061 0.184519 0.329196 255 0 255
-0.235321 0.144718 0.422435 255 0 255
-0.208046 0.11525 0.947024 255 0 255
-0.134594 0.225487 0.911505 255 0 255
-0.205005 0.185962 0.890416 255 0 255
-0.161846 0.0816331 0.990679 255 0 255
0.19648 -0.189464 0.907982 255 0 255
0.166912 -0.230269 0.911414 255 0 255
-0.212241 -0.231073 0.283805 255 0 255
-0.207447 -0.235765 0.344911 255 0 255
0.509096 -0.395122 0.0714868 255 0 255
0.490667 -0.477028 0.0967594 255 0 255
-0.331679 -0.415932 0.138623 255 0 255
-0.18531 -0.736114 0.0900607 255 0 255
0.410372 -0.737027 0.0716334 255 0 255
0.295066 -0.74534 0.0734418 255 0 255
-0.15362 -0.716191 0.123564 255 0 255
0.501346 -0.547616 0.0792955 255 0 255
0.428883 0.444009 0.124908 255 0 255
