ply
format ascii 1.0
comment Created by Open3D
element vertex 437
property double x
property double y
property double z
property uchar red
property uchar green
property uchar blue
end_header
0.0108803 0.505909 0.12411 255 0 255
-0.0366905 0.458003 0.168234 255 0 255
0.0803338 0.514203 0.105193 255 0 255
-0.129117 0.474929 0.154916 255 0 255
0.136795 0.513751 0.0978906 255 0 255
0.0464416 0.498682 0.129298 255 0 255
0.0514461 0.479974 0.147883 255 0 255
0.215039 0.51547 0.0700714 255 0 255
-0.179765 0.505909 0.120327 255 0 255
0.0295215 0.533212 0.0669921 255 0 255
-0.0829011 0.534837 0.0673693 255 0 255
0.189624 0.473135 0.128157 255 0 255
0.102596 0.483611 0.138322 255 0 255
-0.118063 0.498571 0.136576 255 0 255
-0.115137 0.526967 0.0913361 255 0 255
-0.205285 0.472823 0.152237 255 0 255
-0.213183 0.507542 0.11898 255 0 255
0.143739 0.527406 0.0677397 255 0 255
0.0736067 0.474358 0.146986 255 0 255
0.13643 0.446384 0.128704 255 0 255
-0.0942937 0.434333 0.145025 255 0 255
0.169142 0.429099 0.124862 255 0 255
0.140909 0.450425 0.0939026 255 0 255
0.223164 0.41153 0.11053 255 0 255
0.231766 0.247463 0.665049 255 0 255
0.133827 0.268612 0.608961 255 0 255
0.265863 0.208647 0.658913 255 0 255
0.259072 0.216813 0.624891 255 0 255
0.220088 0.188844 0.535728 255 0 255
0.240985 0.198313 0.740009 255 0 255
0.138526 0.278713 0.655777 255 0 255
0.187453 0.191276 0.518511 255 0 255
-0.236003 0.128082 0.200933 255 0 255
-0.188201 0.186778 0.218891 255 0 255
0.179659 0.241543 0.271824 255 0 255
0.250563 0.172476 0.253553 255 0 255
0.210131 0.221874 0.321052 255 0 255
0.181463 0.241677 0.340488 255 0 255
0.216394 0.21856 0.351778 255 0 255
-0.205547 0.161527 0.222193 255 0 255
0.138485 0.226804 0.902018 255 0 255
0.180593 0.195052 0.919593 255 0 255
0.178657 0.225794 0.864369 255 0 255
-0.22733 0.0464591 0.295224 255 0 255
0.0128539 0.169207 0.945519 255 0 255
0.121516 0.222437 0.572616 255 0 255
0.170593 0.195481 0.866884 255 0 255
0.233983 0.172236 0.390472 255 0 255
0.249727 0.138099 0.416481 255 0 255
0.203817 0.207135 0.460315 255 0 255
0.230239 0.17683 0.423741 255 0 255
0.075753 0.206918 0.957273 255 0 255
0.0931489 0.22067 0.941148 255 0 255
0.0713641 0.160329 0.989504 255 0 255
0.123949 0.200844 0.922568 255 0 255
0.180343 0.183078 0.745268 255 0 255
0.0553489 0.132735 0.999802 255 0 255
0.21333 0.213265 0.806183 255 0 255
0.145579 0.170876 0.977298 255 0 255
0.242804 0.147488 0.877464 255 0 255
0.229616 0.129542 0.929573 255 0 255
0.0372816 0.156341 0.98959 255 0 255
0.199024 0.185846 0.891933 255 0 255
0.201531 0.131683 0.927784 255 0 255
0.231518 0.104383 0.93494 255 0 255
-0.047925 0.200235 0.954382 255 0 255
-0.0121254 0.18213 0.972943 255 0 255
0.0137829 0.154009 0.988276 255 0 255
-0.194275 0.165211 0.759954 255 0 255
0.216235 0.103064 0.920161 255 0 255
0.161838 0.126876 0.95254 255 0 255
0.116706 0.202298 0.947334 255 0 255
-0.211289 0.133315 0.749189 255 0 255
0.196832 0.0842801 0.939001 255 0 255
0.201121 0.0966405 0.972281 255 0 255
0.220284 0.147355 0.771629 255 0 255
0.214128 0.150252 0.543895 255 0 255
0.268774 0.151027 0.619878 255 0 255
0.204818 0.0432518 0.966987 255 0 255
-0.188035 0.158585 0.538012 255 0 255
0.165766 0.0467887 0.992128 255 0 255
0.216611 0.0254545 0.925246 255 0 255
0.212522 0.0961669 0.955798 255 0 255
0.236307 0.00155798 0.920196 255 0 255
0.390405 0.0462562 0.143027 255 0 255
0.365047 0.102233 0.135866 255 0 255
0.497746 0.0392684 0.103685 255 0 255
0.473195 0.0438024 0.131109 255 0 255
0.394145 0.072459 0.131413 255 0 255
0.3372 -0.0623792 0.129531 255 0 255
0.478207 -0.00126509 0.127855 255 0 255
0.354527 -0.0214154 0.140286 255 0 255
0.366245 0.0391868 0.130983 255 0 255
0.499897 0.000646804 0.101614 255 0 255
0.247869 0.0127797 0.129256 255 0 255
0.51264 0.0270855 0.0679395 255 0 255
0.356782 -0.0772712 0.146878 255 0 255
0.344943 -0.0990396 0.139207 255 0 255
-0.223986 -0.0962674 0.746837 255 0 255
-0.227189 0.0355301 0.826978 255 0 255
0.487286 -0.0689059 0.117929 255 0 255
0.50178 -0.0714983 0.0980682 255 0 255
0.0799875 -0.0999821 0.966362 255 0 255
-0.194899 -0.107132 0.969383 255 0 255
-0.187953 -0.029262 0.964985 255 0 255
-0.217747 -0.134429 0.910933 255 0 255
-0.196765 -0.0611497 0.968622 255 0 255
-0.201496 -0.195738 0.889583 255 0 255
-0.213765 -0.136467 0.950574 255 0 255
0.23976 -0.184366 0.674825 255 0 255
-0.201656 -0.142512 0.924437 255 0 255
-0.200137 -0.189305 0.762902 255 0 255
-0.236594 -0.176471 0.875008 255 0 255
-0.193041 -0.112242 0.942088 255 0 255
0.494986 -0.12659 0.105754 255 0 255
0.0102236 -0.202913 0.928948 255 0 255
0.506589 -0.11478 0.0865074 255 0 255
0.0629769 -0.181174 0.98656 255 0 255
0.14385 -0.190915 0.974439 255 0 255
0.22631 -0.174147 0.212173 255 0 255
0.0705497 -0.224699 0.934457 255 0 255
-0.148566 -0.212991 0.761599 255 0 255
0.121176 -0.24377 0.89301 255 0 255
0.162664 -0.15606 0.981889 255 0 255
-0.189067 -0.230765 0.527984 255 0 255
-0.171335 -0.20803 0.748385 255 0 255
-0.0248335 -0.237147 0.926884 255 0 255
0.0264025 -0.24672 0.925996 255 0 255
-0.223625 -0.157288 0.901959 255 0 255
-0.171204 -0.245862 0.871438 255 0 255
-0.0847576 -0.195623 0.982218 255 0 255
-0.109671 -0.169069 0.993694 255 0 255
-0.0926488 -0.229777 0.8898 255 0 255
-0.0633466 -0.209487 0.907579 255 0 255
-0.0501719 -0.233478 0.917669 255 0 255
-0.144127 -0.159816 0.987293 255 0 255
-0.0953457 -0.225608 0.928269 255 0 255
-0.0624637 -0.220001 0.966284 255 0 255
-0.146341 -0.184107 0.977316 255 0 255
-0.117326 -0.257392 0.884281 255 0 255
-0.148269 -0.182799 0.941277 255 0 255
0.18181 -0.218309 0.521524 255 0 255
-0.0899973 -0.258422 0.919557 255 0 255
-0.074365 -0.234791 0.880604 255 0 255
-0.156779 -0.223814 0.222165 255 0 255
-0.16666 -0.265609 0.851989 255 0 255
-0.0835921 -0.258478 0.886605 255 0 255
-0.139264 -0.266345 0.871275 255 0 255
-0.205224 -0.188106 0.515714 255 0 255
0.505181 -0.153599 0.0875076 255 0 255
0.455084 -0.153061 0.142092 255 0 255
0.51478 -0.152866 0.0659442 255 0 255
0.118559 -0.287644 0.617805 255 0 255
0.143415 -0.289067 0.622301 255 0 255
0.16283 -0.281024 0.700544 255 0 255
-0.266198 -0.165547 0.583291 255 0 255
-0.032604 -0.287832 0.604397 255 0 255
-0.183459 -0.274351 0.594736 255 0 255
-0.236614 -0.256562 0.624493 255 0 255
-0.255809 -0.229667 0.681234 255 0 255
-0.218383 -0.27349 0.63164 255 0 255
-0.231772 -0.261458 0.673463 255 0 255
-0.186858 -0.288291 0.672204 255 0 255
0.449948 -0.181499 0.144532 255 0 255
0.481139 -0.202659 0.119493 255 0 255
0.482035 -0.272118 0.116089 255 0 255
-0.532056 -0.436289 0.134325 255 0 255
-0.560827 -0.419978 0.103066 255 0 255
-0.571331 -0.448733 0.0874263 255 0 255
-0.574284 -0.523298 0.0795771 255 0 255
-0.564992 -0.542311 0.0966394 255 0 255
-0.412579 -0.707084 0.124357 255 0 255
-0.402192 -0.735172 0.0914797 255 0 255
-0.566237 -0.593156 0.0920558 255 0 255
-0.391728 -0.719548 0.113273 255 0 255
-0.070052 0.495259 0.139895 255 0 255
0.028826 0.488536 0.141969 255 0 255
-0.250038 0.248453 0.210053 255 0 255
0.481369 0.11726 0.118522 255 0 255
0.465715 0.139326 0.131465 255 0 255
-0.00649899 0.271838 0.638476 255 0 255
-0.0435437 0.274547 0.672756 255 0 255
0.284259 0.116393 0.676643 255 0 255
-0.116032 0.269701 0.650939 255 0 255
0.511025 0.110908 0.076351 255 0 255
-0.171914 0.248232 0.599697 255 0 255
0.283989 0.116829 0.633591 255 0 255
0.15088 0.234377 0.527087 255 0 255
0.21921 0.193657 0.504142 255 0 255
0.241946 0.158109 0.492291 255 0 255
0.153918 0.231166 0.474854 255 0 255
0.189869 0.172508 0.448713 255 0 255
-0.162999 0.215623 0.490913 255 0 255
-0.143704 0.181968 0.434108 255 0 255
-0.220827 0.170034 0.502498 255 0 255
-0.177537 0.218962 0.465801 255 0 255
-0.211307 0.190724 0.454579 255 0 255
-0.141405 0.216376 0.473775 255 0 255
-0.1487 0.214041 0.864328 255 0 255
0.498309 0.0829677 0.0999498 255 0 255
0.504164 0.0639555 0.0933525 255 0 255
-0.531988 0.0776646 0.13801 255 0 255
-0.201547 0.117478 0.461242 255 0 255
-0.530102 0.023804 0.140033 255 0 255
-0.547239 0.0166779 0.122144 255 0 255
0.247768 0.0311835 0.361762 255 0 255
0.210201 -0.108299 0.445121 255 0 255
0.236852 -0.0722996 0.374701 255 0 255
0.220862 -0.0462876 0.304482 255 0 255
0.237776 0.0253979 0.339272 255 0 255
0.227556 0.079045 0.414081 255 0 255
-0.561798 -0.0249797 0.104941 255 0 255
-0.516051 -0.0921963 0.149678 255 0 255
-0.57993 -0.0691507 0.068657 255 0 255
0.214219 -0.164078 0.539965 255 0 255
-0.442032 -0.0947612 0.132535 255 0 255
-0.20308 -0.117999 0.895228 255 0 255
-0.203656 -0.137995 0.889937 255 0 255
0.231839 -0.162331 0.475007 255 0 255
-0.203032 -0.176275 0.743953 255 0 255
0.153131 -0.212347 0.481797 255 0 255
0.207032 -0.147055 0.487736 255 0 255
0.17349 -0.215756 0.458702 255 0 255
-0.0173681 -0.233024 0.306832 255 0 255
0.0123992 -0.233827 0.304805 255 0 255
-0.502388 -0.125179 0.157773 255 0 255
-0.211173 -0.168408 0.870312 255 0 255
0.145237 -0.233256 0.461845 255 0 255
0.25922 -0.17542 0.293737 255 0 255
0.259068 -0.176904 0.226982 255 0 255
0.23462 -0.214098 0.256558 255 0 255
0.22905 -0.222529 0.218197 255 0 255
-0.178293 -0.240582 0.432412 255 0 255
-0.220123 -0.195157 0.424047 255 0 255
0.237228 -0.211242 0.28665 255 0 255
-0.238907 -0.16481 0.493998 255 0 255
0.256614 -0.179083 0.268906 255 0 255
0.237755 -0.208274 0.327911 255 0 255
0.195409 -0.246668 0.306092 255 0 255
0.244329 -0.198438 0.385896 255 0 255
0.256051 -0.184292 0.353703 255 0 255
0.220801 -0.230676 0.372042 255 0 255
0.217809 -0.231375 0.341813 255 0 255
0.192799 -0.249089 0.355303 255 0 255
-0.233117 -0.200129 0.227648 255 0 255
0.210965 -0.217657 0.539491 255 0 255
0.288488 -0.146656 0.634712 255 0 255
0.158029 -0.274717 0.583484 255 0 255
0.266975 -0.227288 0.646331 255 0 255
0.266514 -0.222251 0.61582 255 0 255
0.254879 -0.206671 0.728403 255 0 255
0.237999 -0.260023 0.647014 255 0 255
0.251065 -0.233702 0.703526 255 0 255
-0.504979 -0.193578 0.158373 255 0 255
-0.563397 -0.186604 0.105875 255 0 255
-0.127681 -0.247613 0.247908 255 0 255
-0.56989 -0.264245 0.090962 255 0 255
-0.551643 -0.265695 0.118007 255 0 255
-0.379937 -0.355881 0.136664 255 0 255
-0.514106 -0.288869 0.149481 255 0 255
-0.522629 -0.315788 0.144851 255 0 255
-0.580885 -0.308985 0.0671523 255 0 255
-0.550835 -0.316423 0.119876 255 0 255
-0.523579 -0.374383 0.142866 255 0 255
0.0164398 -0.697316 0.0762633 255 0 255
-0.0117517 -0.701356 0.0880404 255 0 255
-0.0136675 -0.697904 0.117964 255 0 255
0.0146527 -0.715046 0.106254 255 0 255
-0.00977788 -0.627864 0.19377 255 0 255
-0.062611 -0.725654 0.108472 255 0 255
-0.0942599 -0.745045 0.0840834 255 0 255
0.165945 -0.749342 0.0740026 255 0 255
0.037089 -0.746385 0.0781086 255 0 255
0.124299 -0.711924 0.10382 255 0 255
0.188818 -0.732379 0.105731 255 0 255
0.0979938 -0.752462 0.0666936 255 0 255
0.132812 -0.543387 0.225891 255 0 255
0.0343797 -0.513404 0.21078 255 0 255
0.174476 -0.596469 0.206785 255 0 255
0.0650108 -0.54228 0.225811 255 0 255
0.130758 -0.580113 0.223988 255 0 255
0.118787 -0.561149 0.226571 255 0 255
0.164855 -0.531093 0.21444 255 0 255
0.182202 -0.695699 0.114737 255 0 255
0.0820717 -0.6873 0.158656 255 0 255
0.0726385 -0.71294 0.0987026 255 0 255
0.165877 -0.703315 0.0655833 255 0 255
-0.280477 0.534179 0.0666064 255 0 255
0.253313 0.501908 0.0914333 255 0 255
-0.294749 0.517667 0.106567 255 0 255
-0.287257 0.501976 0.127209 255 0 255
-0.242624 0.471191 0.152501 255 0 255
0.466925 0.470805 0.08051 255 0 255
-0.221933 0.531196 0.073205 255 0 255
-0.219343 0.518617 0.101151 255 0 255
-0.387213 0.517316 0.106624 255 0 255
-0.507443 0.476911 0.120492 255 0 255
-0.536098 0.46248 0.105939 255 0 255
0.413024 0.411193 0.140343 255 0 255
0.329433 0.493949 0.101434 255 0 255
-0.500319 0.264796 0.132417 255 0 255
-0.424447 0.435821 0.129484 255 0 255
0.246104 0.413606 0.108392 255 0 255
0.267223 0.439684 0.0820669 255 0 255
0.333732 0.392967 0.113083 255 0 255
-0.542963 0.302567 0.126914 255 0 255
-0.576575 0.32931 0.068883 255 0 255
0.470352 0.302703 0.112059 255 0 255
-0.548491 0.273023 0.11835 255 0 255
0.430607 0.218448 0.107932 255 0 255
0.489503 0.243674 0.087017 255 0 255
0.45041 0.221082 0.0875734 255 0 255
0.153523 0.249879 0.205257 255 0 255
0.499603 0.209559 0.0752699 255 0 255
0.486966 0.208547 0.0953508 255 0 255
-0.443887 0.14706 0.127595 255 0 255
0.470628 0.212034 0.115088 255 0 255
-0.521696 0.157072 0.143173 255 0 255
-0.557312 0.168329 0.112191 255 0 255
0.470373 0.192314 0.120435 255 0 255
-0.547904 0.107428 0.123719 255 0 255
0.206679 0.223322 0.55909 255 0 255
-0.215205 0.24165 0.60146 255 0 255
-0.234397 0.232063 0.617536 255 0 255
-0.238778 0.232141 0.645565 255 0 255
-0.230254 0.201485 0.738417 255 0 255
-0.181085 0.206336 0.529152 255 0 255
-0.162964 0.262587 0.631918 255 0 255
-0.108121 0.264699 0.688485 255 0 255
-0.184681 0.160807 0.506731 255 0 255
-0.235849 0.183531 0.229139 255 0 255
-0.251954 0.154932 0.310408 255 0 255
-0.236061 0.184519 0.329196 255 0 255
-0.115957 0.148569 0.95452 255 0 255
-0.149658 0.238554 0.847902 255 0 255
-0.256899 0.148696 0.817702 255 0 255
0.285286 0.0876837 0.677391 255 0 255
-0.206728 0.125596 0.483797 255 0 255
-0.235321 0.144718 0.422435 255 0 255
-0.179958 0.217436 0.845082 255 0 255
-0.0724522 0.172132 0.94375 255 0 255
-0.143199 0.144973 0.946747 255 0 255
-0.101655 0.222962 0.889945 255 0 255
-0.208046 0.11525 0.947024 255 0 255
-0.0946972 0.228552 0.914533 255 0 255
-0.134594 0.225487 0.911505 255 0 255
-0.113893 0.217741 0.93278 255 0 255
-0.11054 0.1923 0.925786 255 0 255
-0.166837 0.141701 0.946111 255 0 255
-0.220865 0.194232 0.79326 255 0 255
-0.245282 0.106332 0.900012 255 0 255
-0.191996 0.148741 0.888088 255 0 255
-0.227983 0.144133 0.85996 255 0 255
-0.205005 0.185962 0.890416 255 0 255
-0.161846 0.0816331 0.990679 255 0 255
0.192245 0.0604834 0.944419 255 0 255
0.177778 -0.00405353 0.981835 255 0 255
0.288957 -0.0532607 0.650733 255 0 255
0.19449 -0.0391328 0.974259 255 0 255
0.196924 -0.0130993 0.973393 255 0 255
-0.224675 -0.037879 0.937276 255 0 255
0.207672 -0.063742 0.891961 255 0 255
-0.276379 -0.0504911 0.6855 255 0 255
-0.215995 -0.0579394 0.949641 255 0 255
-0.277135 -0.118867 0.669275 255 0 255
-0.201295 -0.0917704 0.926313 255 0 255
0.287385 -0.0862455 0.622038 255 0 255
0.221241 -0.10818 0.886409 255 0 255
0.286159 -0.0855774 0.690891 255 0 255
-0.276843 -0.107165 0.599739 255 0 255
-0.245651 -0.191644 0.677318 255 0 255
0.205794 -0.119852 0.938448 255 0 255
0.212107 -0.135416 0.892341 255 0 255
0.137535 -0.152187 0.991544 255 0 255
0.19648 -0.189464 0.907982 255 0 255
0.154924 -0.196429 0.936201 255 0 255
0.159557 -0.133826 0.990794 255 0 255
0.1911 -0.158053 0.933188 255 0 255
0.156805 -0.110151 0.994846 255 0 255
0.254999 -0.119377 0.887819 255 0 255
-0.213504 -0.0217389 0.413321 255 0 255
-0.182942 -0.216639 0.5018 255 0 255
0.173978 -0.180119 0.941072 255 0 255
0.25009 -0.135588 0.899545 255 0 255
-0.0373854 -0.240094 0.294498 255 0 255
0.1564 -0.206735 0.733457 255 0 255
0.178737 -0.203304 0.880106 255 0 255
0.131555 -0.21105 0.929791 255 0 255
0.166912 -0.230269 0.911414 255 0 255
-0.115774 -0.220463 0.434755 255 0 255
0.2348 -0.151017 0.87192 255 0 255
0.132981 -0.259688 0.886276 255 0 255
0.179164 -0.135153 0.953877 255 0 255
0.0956449 -0.214643 0.898487 255 0 255
-0.24003 -0.183968 0.240901 255 0 255
-0.15155 -0.267243 0.285237 255 0 255
-0.212241 -0.231073 0.283805 255 0 255
0.137822 -0.227157 0.882093 255 0 255
-0.207447 -0.235765 0.344911 255 0 255
-0.27972 -0.15499 0.654061 255 0 255
0.108372 -0.230885 0.925897 255 0 255
-0.267929 -0.191495 0.683744 255 0 255
0.140949 -0.283319 0.700974 255 0 255
0.0725679 -0.287206 0.701343 255 0 255
0.0552593 -0.291069 0.618724 255 0 255
0.0249947 -0.288685 0.699502 255 0 255
-0.137054 -0.284608 0.719392 255 0 255
-0.269187 -0.169191 0.70951 255 0 255
0.162869 -0.284802 0.222151 255 0 255
0.131493 -0.244738 0.254775 255 0 255
0.130668 -0.368711 0.200372 255 0 255
0.463459 -0.359118 0.127432 255 0 255
0.489056 -0.367871 0.103864 255 0 255
0.483018 -0.392942 0.110707 255 0 255
0.509096 -0.395122 0.0714868 255 0 255
0.467056 -0.438133 0.124477 255 0 255
-0.235911 -0.531002 0.131852 255 0 255
0.48903 -0.449782 0.098451 255 0 255
-0.331679 -0.415932 0.138623 255 0 255
0.491485 -0.490652 0.0959135 255 0 255
0.472334 -0.5683 0.114894 255 0 255
-0.0620958 -0.652754 0.187642 255 0 255
-0.219323 -0.711333 0.124669 255 0 255
-0.18531 -0.736114 0.0900607 255 0 255
0.410372 -0.737027 0.0716334 255 0 255
-0.23242 -0.68925 0.143767 255 0 255
-0.319143 -0.720818 0.114666 255 0 255
0.301676 -0.747673 0.0679645 255 0 255
0.281845 -0.740674 0.0843963 255 0 255
-0.539619 0.184168 0.131267 255 0 255
0.355233 -0.713683 0.111465 255 0 255
-0.15362 -0.716191 0.123564 255 0 255
-0.253067 -0.700856 0.130398 255 0 255
0.501346 -0.547616 0.0792955 255 0 255
0.428883 0.444009 0.124908 255 0 255
-0.30948 0.477366 0.15093 255 0 255
-0.234806 0.498549 0.130351 255 0 255
