ply
format ascii 1.0
comment Created by Open3D
element vertex 108
property double x
property double y
property double z
property uchar red
property uchar green
property uchar blue
end_header
0.127954 0.471893 0.11725 255 0 0
-0.0923221 0.488986 0.12905 255 0 0
0.234176 0.508689 0.0807523 255 0 0
-0.244446 0.503365 0.118188 255 0 0
0.0295215 0.533212 0.0669921 255 0 0
0.252234 0.224308 0.649618 255 0 0
0.136177 0.273662 0.632369 255 0 0
0.201675 0.190018 0.490567 255 0 0
0.240985 0.198313 0.740009 255 0 0
-0.2164 0.16498 0.217789 255 0 0
0.179659 0.241543 0.271824 255 0 0
0.250563 0.172476 0.253553 255 0 0
0.202663 0.227371 0.337773 255 0 0
0.0700391 0.144822 0.935925 255 0 0
-0.22733 0.0464591 0.295224 255 0 0
0.200314 0.165216 0.758448 255 0 0
0.21333 0.213265 0.806183 255 0 0
-0.214171 0.173561 0.760205 255 0 0
0.280577 0.117983 0.651876 255 0 0
-0.187931 0.175601 0.480254 255 0 0
0.37896 0.0650338 0.135322 255 0 0
0.48355 0.125271 0.102383 255 0 0
0.348363 -0.0650263 0.138976 255 0 0
0.247869 0.0127797 0.129256 255 0 0
-0.223986 -0.0962674 0.746837 255 0 0
-0.227189 0.0355301 0.826978 255 0 0
0.501767 -0.114706 0.0936184 255 0 0
0.0799875 -0.0999821 0.966362 255 0 0
-0.207963 -0.116543 0.922892 255 0 0
0.252865 -0.222383 0.66932 255 0 0
-0.180767 -0.19665 0.75421 255 0 0
0.055625 -0.194879 0.92293 255 0 0
0.0629769 -0.181174 0.98656 255 0 0
0.233362 -0.207303 0.300426 255 0 0
-0.204035 -0.20008 0.509874 255 0 0
0.191991 -0.186565 0.490132 255 0 0
-0.145337 -0.246223 0.25177 255 0 0
0.462057 -0.179073 0.135372 255 0 0
0.140001 -0.283809 0.607863 255 0 0
0.151889 -0.282172 0.700759 255 0 0
-0.266198 -0.165547 0.583291 255 0 0
-0.032604 -0.287832 0.604397 255 0 0
-0.241138 -0.219092 0.661062 255 0 0
0.482035 -0.272118 0.116089 255 0 0
-0.554738 -0.435 0.108272 255 0 0
-0.568504 -0.552922 0.0894241 255 0 0
-0.402166 -0.720601 0.109703 255 0 0
-0.250038 0.248453 0.210053 255 0 0
-0.0250214 0.273193 0.655616 255 0 0
-0.178201 0.250154 0.633657 255 0 0
-0.546399 0.0712237 0.120459 255 0 0
0.242772 0.0282907 0.350517 255 0 0
0.236852 -0.0722996 0.374701 255 0 0
0.220862 -0.0462876 0.304482 255 0 0
0.227556 0.079045 0.414081 255 0 0
-0.509219 -0.108688 0.153726 255 0 0
-0.442032 -0.0947612 0.132535 255 0 0
-0.0141181 -0.235648 0.302045 255 0 0
-0.178293 -0.240582 0.432412 255 0 0
-0.220123 -0.195157 0.424047 255 0 0
-0.236573 -0.192049 0.234274 255 0 0
0.288488 -0.146656 0.634712 255 0 0
-0.504979 -0.193578 0.158373 255 0 0
-0.563397 -0.186604 0.105875 255 0 0
-0.544796 -0.304913 0.119028 255 0 0
-0.379937 -0.355881 0.136664 255 0 0
0.0631189 -0.720483 0.0920325 255 0 0
-0.0359368 -0.640309 0.190706 255 0 0
0.117297 -0.552556 0.219181 255 0 0
0.0820717 -0.6873 0.158656 255 0 0
0.466925 0.470805 0.08051 255 0 0
-0.387213 0.517316 0.106624 255 0 0
-0.521771 0.469695 0.113215 255 0 0
0.420954 0.427601 0.132625 255 0 0
0.329433 0.493949 0.101434 255 0 0
-0.530591 0.280129 0.125894 255 0 0
-0.424447 0.435821 0.129484 255 0 0
0.333732 0.392967 0.113083 255 0 0
-0.576575 0.32931 0.068883 255 0 0
0.470352 0.302703 0.112059 255 0 0
0.153523 0.249879 0.205257 255 0 0
-0.443887 0.14706 0.127595 255 0 0
-0.244008 0.169725 0.319802 255 0 0
-0.225433 0.146773 0.871236 255 0 0
-0.161846 0.0816331 0.990679 255 0 0
0.2875 -0.0750279 0.654554 255 0 0
-0.276379 -0.0504911 0.6855 255 0 0
-0.276843 -0.107165 0.599739 255 0 0
-0.213504 -0.0217389 0.413321 255 0 0
0.1564 -0.206735 0.733457 255 0 0
-0.115774 -0.220463 0.434755 255 0 0
-0.212241 -0.231073 0.283805 255 0 0
-0.207447 -0.235765 0.344911 255 0 0
0.0487813 -0.287946 0.700423 255 0 0
0.0552593 -0.291069 0.618724 255 0 0
-0.137054 -0.284608 0.719392 255 0 0
0.162869 -0.284802 0.222151 255 0 0
0.131493 -0.244738 0.254775 255 0 0
0.130668 -0.368711 0.200372 255 0 0
0.4846 -0.413374 0.104619 255 0 0
-0.235911 -0.531002 0.131852 255 0 0
-0.331679 -0.415932 0.138623 255 0 0
0.48684 -0.557958 0.0970947 255 0 0
-0.208748 -0.710749 0.122492 255 0 0
0.410372 -0.737027 0.0716334 255 0 0
-0.319143 -0.720818 0.114666 255 0 0
0.291761 -0.744174 0.0761804 255 0 0
0.355233 -0.713683 0.111465 255 0 0
