ply
format ascii 1.0
comment Created by Open3D
element vertex 72
property double x
property double y
property double z
property uchar red
property uchar green
property uchar blue
end_header
0.133954 0.478994 0.110763 255 0 0
-0.185287 0.497773 0.122412 255 0 0
0.26843 0.163551 0.650908 255 0 0
0.195762 0.200489 0.468186 255 0 0
0.213871 0.176248 0.752302 255 0 0
-0.223128 0.181674 0.216242 255 0 0
0.250563 0.172476 0.253553 255 0 0
0.0266898 0.148211 0.915643 255 0 0
-0.22733 0.0464591 0.295224 255 0 0
-0.187931 0.175601 0.480254 255 0 0
0.363662 3.73266e-06 0.137149 255 0 0
0.484626 0.0333836 0.104874 255 0 0
0.247869 0.0127797 0.129256 255 0 0
-0.223986 -0.0962674 0.746837 255 0 0
-0.227189 0.0355301 0.826978 255 0 0
0.0799875 -0.0999821 0.966362 255 0 0
-0.0112014 -0.174767 0.92393 255 0 0
0.252865 -0.222383 0.66932 255 0 0
-0.180767 -0.19665 0.75421 255 0 0
0.233362 -0.207303 0.300426 255 0 0
-0.204035 -0.20008 0.509874 255 0 0
0.191991 -0.186565 0.490132 255 0 0
-0.145337 -0.246223 0.25177 255 0 0
0.118815 -0.285624 0.610579 255 0 0
0.100335 -0.285059 0.700591 255 0 0
-0.27152 -0.136356 0.591515 255 0 0
-0.032604 -0.287832 0.604397 255 0 0
-0.232464 -0.224551 0.665923 255 0 0
-0.547778 -0.343939 0.115801 255 0 0
-0.568504 -0.552922 0.0894241 255 0 0
-0.402166 -0.720601 0.109703 255 0 0
-0.144161 0.255273 0.638537 255 0 0
-0.546399 0.0712237 0.120459 255 0 0
0.242772 0.0282907 0.350517 255 0 0
0.236852 -0.0722996 0.374701 255 0 0
0.220862 -0.0462876 0.304482 255 0 0
-0.507806 -0.136984 0.155275 255 0 0
-0.442032 -0.0947612 0.132535 255 0 0
-0.0141181 -0.235648 0.302045 255 0 0
-0.171396 -0.218734 0.430405 255 0 0
-0.223209 -0.212734 0.274316 255 0 0
0.287747 -0.0929349 0.649593 255 0 0
-0.563397 -0.186604 0.105875 255 0 0
-0.379937 -0.355881 0.136664 255 0 0
0.0643824 -0.718271 0.096474 255 0 0
-0.0359368 -0.640309 0.190706 255 0 0
0.117297 -0.552556 0.219181 255 0 0
0.436277 0.442002 0.115253 255 0 0
-0.387213 0.517316 0.106624 255 0 0
-0.521771 0.469695 0.113215 255 0 0
0.329433 0.493949 0.101434 255 0 0
-0.530591 0.280129 0.125894 255 0 0
-0.424447 0.435821 0.129484 255 0 0
0.333732 0.392967 0.113083 255 0 0
-0.576575 0.32931 0.068883 255 0 0
0.153523 0.249879 0.205257 255 0 0
-0.443887 0.14706 0.127595 255 0 0
-0.244008 0.169725 0.319802 255 0 0
-0.161846 0.0816331 0.990679 255 0 0
-0.276379 -0.0504911 0.6855 255 0 0
-0.213504 -0.0217389 0.413321 255 0 0
0.1564 -0.206735 0.733457 255 0 0
0.147181 -0.26477 0.238463 255 0 0
0.130668 -0.368711 0.200372 255 0 0
0.485098 -0.445504 0.102947 255 0 0
-0.235911 -0.531002 0.131852 255 0 0
-0.331679 -0.415932 0.138623 255 0 0
-0.208748 -0.710749 0.122492 255 0 0
0.410372 -0.737027 0.0716334 255 0 0
-0.319143 -0.720818 0.114666 255 0 0
0.291761 -0.744174 0.0761804 255 0 0
0.355233 -0.713683 0.111465 255 0 0
