ply
format ascii 1.0
comment Created by Open3D
element vertex 53
property double x
property double y
property double z
property uchar red
property uchar green
property uchar blue
end_header
0.0549276 0.523708 0.0860928 255 0 0
-0.24863 0.520567 0.0938191 255 0 0
-0.099019 0.530902 0.0793527 255 0 0
0.143739 0.527406 0.0677397 255 0 0
0.246777 0.230505 0.651774 255 0 0
0.180593 0.195052 0.919593 255 0 0
-0.22733 0.0464591 0.295224 255 0 0
0.216936 0.178071 0.452106 255 0 0
0.145579 0.170876 0.977298 255 0 0
0.495028 0.048519 0.10045 255 0 0
-0.201496 -0.195738 0.889583 255 0 0
0.22631 -0.174147 0.212173 255 0 0
-0.148269 -0.182799 0.941277 255 0 0
-0.225484 -0.261111 0.663742 255 0 0
0.481139 -0.202659 0.119493 255 0 0
-0.566079 -0.434355 0.0952462 255 0 0
-0.567937 -0.56298 0.090082 255 0 0
-0.223314 0.167721 0.438507 255 0 0
-0.551951 0.0474686 0.114161 255 0 0
0.220862 -0.0462876 0.304482 255 0 0
0.231839 -0.162331 0.475007 255 0 0
0.17349 -0.215756 0.458702 255 0 0
-0.199208 -0.217869 0.42823 255 0 0
0.234942 -0.208518 0.355839 255 0 0
-0.218754 -0.219629 0.287664 255 0 0
0.255638 -0.235816 0.653173 255 0 0
-0.563397 -0.186604 0.105875 255 0 0
-0.580885 -0.308985 0.0671523 255 0 0
0.150919 -0.744728 0.0821423 255 0 0
0.447904 0.457407 0.102709 255 0 0
-0.387213 0.517316 0.106624 255 0 0
-0.521771 0.469695 0.113215 255 0 0
0.329433 0.493949 0.101434 255 0 0
-0.424447 0.435821 0.129484 255 0 0
0.267223 0.439684 0.0820669 255 0 0
-0.576575 0.32931 0.068883 255 0 0
-0.231789 0.234499 0.627531 255 0 0
-0.181085 0.206336 0.529152 255 0 0
-0.162964 0.262587 0.631918 255 0 0
-0.235849 0.183531 0.229139 255 0 0
-0.244008 0.169725 0.319802 255 0 0
-0.208046 0.11525 0.947024 255 0 0
-0.134594 0.225487 0.911505 255 0 0
-0.205005 0.185962 0.890416 255 0 0
-0.161846 0.0816331 0.990679 255 0 0
0.181696 -0.209867 0.909698 255 0 0
0.509096 -0.395122 0.0714868 255 0 0
0.490667 -0.477028 0.0967594 255 0 0
-0.331679 -0.415932 0.138623 255 0 0
-0.169465 -0.726152 0.106812 255 0 0
0.410372 -0.737027 0.0716334 255 0 0
0.295066 -0.74534 0.0734418 255 0 0
0.501346 -0.547616 0.0792955 255 0 0
